<svg xmlns:svg="http://www.w3.org/2000/svg" xmlns="http://www.w3.org/2000/svg" height="48" viewBox="0 0 24 24" width="48" id="Home" version="1.1" style="cursor:pointer">
  <g id="Base" fill="#ffffff" stroke="#ffffff" stroke-width="0.6">
    <path d="m12.446323 3.116211c-0.06939 0.00711-0.143622 0.030373-0.217774 0.079102l-9.1465178 8.257746c-0.098839 0.538955 0.4436573 0.588933 0.4436573 0.588933l1.9831337 0 0 8 4.9820238 0 0.509985-0.0039 0.01011-5.534857 2.987075 0.01058 0.000002 5.529222c0 0 0.514474-0.01028 0.510804-0.0011l4.999999 0 0-8 2.008392 0c0 0 0.534027-0.152145 0.457429-0.632945L12.718651 3.1659494c0 0-0.06417-0.071073-0.272328-0.049738zm0.27916 1.1364037 7.864953 7.0363173-2.003213 0.0088 0 7.820659-3.644892 0.000033-0.0058-5.566307-4.889431 0.01194-0.0064 5.587214-3.6269159 0.01804 0.0000338-7.864126-1.9689652-0.0051 7.7837083-7.0171195c0.305085-0.3559322 0.522422-0.030374 0.522422-0.030374z"/>
  </g>
</svg>
