<svg xmlns:svg="http://www.w3.org/2000/svg" xmlns="http://www.w3.org/2000/svg" height="96" viewBox="0 0 48 48" width="96" id="MeetUs" version="1.1" style="cursor:pointer">
    <g id="Base" stroke="#ffffff" fill="#ffffff" stroke-width="1">
        <path d="m15 10c-3.86 0-7 3.14-7 7 0 3.86 3.14 7 7 7 3.86 0 7-3.14 7-7 0-3.86-3.14-7-7-7zm18 0c-3.86 0-7 3.14-7 7 0 3.86 3.14 7 7 7 3.86 0 7-3.14 7-7 0-3.86-3.14-7-7-7zm-17.916016 1.523438c2.793825 0.03075 5.150669 2.162995 5.40625 5.007812 0.27262 3.034472-1.951856 5.698083-4.986328 5.970703-3.034472 0.27262-5.6961299-1.951856-5.9687498-4.986328-0.2726198-3.034472 1.9499028-5.69613 4.9843748-5.96875 0.189655-0.01704 0.378198-0.02549 0.564453-0.02344zm18.03711 0.03125c2.793825 0.03075 5.148716 2.162995 5.404297 5.007812 0.272619 3.034472-1.949903 5.698083-4.984375 5.970703-3.034472 0.27262-5.698084-1.951856-5.970704-4.986328-0.272619-3.034472 1.951857-5.69613 4.986329-5.96875 0.189654-0.01704 0.378198-0.02549 0.564453-0.02344zM15 26C10.66 26 2 28.16 2 32.5l0 5.5 44 0 0-5.5C46 28.16 37.34 26 33 26c-2.4 0-6.14 0.68-9 2-2.86-1.34-6.6-2-9-2zm-0.194914 1.698305c5.595457 0 11.4661 3.458106 11.4661 5.000848l0 3.572033-22.9322 0 0-3.572033c0-1.543119 5.8706432-5.000848 11.4661-5.000848zM33.531073 28c5.398328 0 11.062147 3.342881 11.062147 4.834746l0 3.45339-16.59322 0 0-3.45339C28 31.56525 27 30 26.087862 29.210756 28.0348 28.381942 31.185898 28 33.531073 28Z" />
    </g>
</svg>
