<svg xmlns:svg="http://www.w3.org/2000/svg" xmlns="http://www.w3.org/2000/svg" height="48" viewBox="0 0 48 48" width="48" id="MeetUs" version="1.1" style="cursor:pointer">
    <g id="Base" stroke="#ffffff" fill="#ffffff" stroke-width="1" transform="translate(-1.0631342,-6.9375001)">
        <path id="path4185-9-3" d="m34.578131 38.395915 1.780356 3.989874c-0.08225 0.446447 0.670715 0.549712 0.670715 0.549712l6.99079-0.01821c0 0 0.208617-0.173531 0.130713-0.500435l-2.24866-4.088612C41.836615 37.899811 41.294764 37.94812 41.294764 37.94812l-6.070403 0.06389c0 0-0.551719-0.179832-0.64623 0.383905zm-27.0065189 0.03006-2.1833848 3.93124c-0.2478057 0.439886 0.1186137 0.541634 0.1186137 0.541634l29.179063-0.01794c0 0 0.628507-0.170981 0.393803-0.49308l-1.509972-4.028528c-0.197128-0.422136-1.068743-0.374537-1.068743-0.374537l-24.3139128 0.06295c0 0-0.3307268-0.177189-0.6154671 0.378261zm-4.0037163 7.089914 42.9749782 0 0 0M6.848184 37.622162 3.7014403 43.207747c-0.3571428 0.625 0.1709492 0.769566 0.1709492 0.769566l42.0535445-0.0255c0 0 0.905818-0.242933 0.567557-0.700579l-3.359087-5.723806c-0.284106-0.599779-0.994352-0.53215-0.994352-0.53215l-34.4048431 0.08945c0 0-0.4766505-0.251754-0.8870249 0.537429zM8.0201654 15.859375c-0.524842 0-0.9472656 0.43063-0.9472656 0.964844l0 18.320312c0 0.534215 0.4224236 0.964844 0.9472656 0.964844l34.1035156 0c0.524842 0 0.949219-0.430629 0.949219-0.964844l0-18.320312c0-0.534214-0.424377-0.964844-0.949219-0.964844zm1.2000514 1.125 32.0822202 0c0.466526 0 0.721163 0.382579 0.717481 0.857422l-0.126269 16.285156c-0.0037 0.474843-0.18782 0.857422-0.654346 0.857422l-32.2716243 0c-0.4665263 0-0.7155278-0.382565-0.7155278-0.857422l0-16.285156c0-0.474857 0.5015396-0.857422 0.9680659-0.857422z" />
    </g>
</svg>
