<svg xmlns:svg="http://www.w3.org/2000/svg" xmlns="http://www.w3.org/2000/svg" height="96" viewBox="0 0 48 48" width="96" id="ContactUs" version="1.1" style="cursor:pointer">
    <g id="Base" stroke="#ffffff" fill="#ffffff" stroke-width="1">
        <path d="M8 8C5.8 8 4.0195313 9.8 4.0195312 12L4 36C4 38.2 5.8 40 8 40L40 40C42.2 40 44 38.2 44 36L44 12C44 9.8 42.2 8 40 8L8 8zM9.3378906 9.7421875L38.748047 9.7421875C40.769997 9.7421875 42.423828 11.361796 42.423828 13.341797L42.423828 34.941406C42.423828 36.921408 40.769997 38.542969 38.748047 38.542969L9.3378906 38.542969C7.3159404 38.542969 5.6601562 36.921408 5.6601562 34.941406L5.6796875 13.341797C5.6796875 11.361796 7.3159406 9.7421875 9.3378906 9.7421875zM8.9804688 13.037109L8.9804688 14.908203 24.042969 24.416016 40.019531 15.009766 40.019531 13.037109 24.042969 22.341797 8.9804688 13.037109z" />
    </g>
</svg>
