<?xml version="1.0" encoding="utf-8"?>
<!-- Generator: Adobe Illustrator 16.0.0, SVG Export Plug-In . SVG Version: 6.00 Build 0)  -->
<svg version="1.2" baseProfile="tiny" id="Layer_1" xmlns="http://www.w3.org/2000/svg" xmlns:xlink="http://www.w3.org/1999/xlink"
	 x="0px" y="0px" width="100px" height="100px" viewBox="0 0 100 100" xml:space="preserve">
<path fill-rule="evenodd" fill="#FFFFFF" d="M100,45.75c0,2.833,0,5.667,0,8.5c-0.205,0.179-0.209,0.178-0.228,0.42
	c-0.158,1.952-0.448,3.886-0.882,5.795c-3.315,14.576-11.47,25.614-24.378,33.102c-6.127,3.555-12.782,5.564-19.842,6.213
	c-0.145,0.014-0.425-0.119-0.421,0.221c-2.833,0-5.667,0-8.5,0c0.004-0.34-0.277-0.207-0.421-0.22
	c-1.535-0.135-3.061-0.341-4.571-0.644C26.339,96.243,15.203,88.549,7.384,76.124c-4.12-6.548-6.453-13.741-7.164-21.453
	C0.207,54.526,0.342,54.245,0,54.25c0-2.833,0-5.667,0-8.5c0.34,0.004,0.208-0.277,0.22-0.42c0.13-1.516,0.335-3.02,0.632-4.511
	C3.695,26.54,11.265,15.459,23.507,7.615c6.645-4.257,13.96-6.662,21.823-7.395c0.144-0.013,0.426,0.123,0.42-0.22
	c2.833,0,5.667,0,8.5,0c-0.005,0.341,0.276,0.207,0.42,0.22c1.515,0.133,3.019,0.338,4.511,0.633
	C73.159,3.618,84.095,10.965,91.951,22.82c4.515,6.814,7.074,14.36,7.828,22.509C99.793,45.473,99.657,45.755,100,45.75z M29.353,70
	c1.506,0,2.942-0.021,4.375,0.013c0.459,0.011,0.64-0.142,0.77-0.568c1.117-3.678,2.265-7.345,3.382-11.022
	c0.135-0.445,0.319-0.617,0.812-0.614c4.394,0.021,8.787,0.021,13.182,0c0.492-0.002,0.668,0.173,0.813,0.617
	c1.195,3.675,2.426,7.338,3.624,11.013c0.136,0.417,0.302,0.589,0.769,0.576c1.353-0.037,2.707-0.013,4.061-0.014
	c0.707,0,0.712-0.003,0.482-0.657c-1.666-4.742-3.334-9.483-5-14.226c-2.919-8.311-5.84-16.619-8.748-24.933
	c-0.145-0.413-0.32-0.587-0.786-0.572c-1.228,0.038-2.458,0.044-3.685,0c-0.585-0.021-0.849,0.14-1.042,0.73
	c-3.993,12.223-8.013,24.438-12.028,36.655C30.01,67.979,29.691,68.962,29.353,70z M66.194,55.379c0,4.643,0.012,9.286-0.014,13.929
	c-0.004,0.587,0.17,0.73,0.728,0.705c0.977-0.045,1.958-0.044,2.935,0c0.532,0.023,0.695-0.098,0.693-0.67
	c-0.025-5.829-0.016-11.658-0.016-17.488c0-3.518-0.01-7.036,0.012-10.555c0.003-0.475-0.131-0.597-0.592-0.581
	c-0.998,0.036-2,0.046-2.996-0.003c-0.585-0.028-0.771,0.11-0.766,0.736C66.208,46.094,66.194,50.736,66.194,55.379z M70.521,32.548
	c0-0.81-0.016-1.621,0.007-2.431c0.011-0.359-0.062-0.513-0.47-0.502c-1.121,0.029-2.244,0.023-3.366,0.002
	c-0.365-0.006-0.51,0.079-0.505,0.477c0.021,1.621,0.02,3.241,0.001,4.862c-0.005,0.399,0.151,0.486,0.513,0.48
	c1.121-0.018,2.243-0.018,3.365,0c0.35,0.005,0.472-0.103,0.462-0.458C70.505,34.169,70.521,33.359,70.521,32.548z"/>
<path fill-rule="evenodd" fill="#01A99D" d="M29.353,70c0.338-1.038,0.657-2.021,0.98-3.003
	c4.015-12.217,8.035-24.432,12.028-36.655c0.193-0.59,0.457-0.752,1.042-0.73c1.227,0.044,2.458,0.039,3.685,0
	c0.465-0.015,0.641,0.159,0.786,0.572c2.908,8.314,5.829,16.623,8.748,24.933c1.666,4.742,3.334,9.483,5,14.226
	C61.851,69.997,61.846,70,61.139,70c-1.354,0.001-2.708-0.023-4.061,0.014c-0.467,0.013-0.633-0.159-0.769-0.576
	c-1.198-3.675-2.429-7.338-3.624-11.013c-0.145-0.444-0.32-0.619-0.813-0.617c-4.395,0.021-8.788,0.021-13.182,0
	c-0.493-0.003-0.676,0.169-0.812,0.614c-1.117,3.678-2.265,7.345-3.382,11.022c-0.13,0.427-0.311,0.579-0.77,0.568
	C32.295,69.979,30.859,70,29.353,70z M45.038,34.283c-0.393,2.037-0.778,3.912-1.35,5.735c-1.328,4.242-2.687,8.473-4.052,12.703
	c-0.167,0.518-0.101,0.652,0.476,0.647c3.456-0.027,6.912-0.02,10.368-0.006c0.407,0.001,0.531-0.05,0.388-0.499
	C48.917,46.73,46.793,40.652,45.038,34.283z"/>
<path fill-rule="evenodd" fill="#01A99D" d="M66.194,55.379c0-4.643,0.014-9.285-0.016-13.928c-0.005-0.626,0.181-0.764,0.766-0.736
	c0.996,0.049,1.998,0.039,2.996,0.003c0.461-0.017,0.595,0.105,0.592,0.581c-0.021,3.519-0.012,7.038-0.012,10.555
	c0,5.83-0.01,11.659,0.016,17.488c0.002,0.572-0.161,0.693-0.693,0.67c-0.977-0.044-1.958-0.045-2.935,0
	c-0.558,0.025-0.731-0.118-0.728-0.705C66.206,64.665,66.194,60.021,66.194,55.379z"/>
<path fill-rule="evenodd" fill="#01A99D" d="M70.521,32.548c0,0.811-0.016,1.622,0.007,2.432c0.01,0.355-0.112,0.462-0.462,0.458
	c-1.122-0.018-2.244-0.018-3.365,0c-0.361,0.005-0.518-0.081-0.513-0.48c0.019-1.621,0.02-3.241-0.001-4.862
	c-0.005-0.398,0.14-0.483,0.505-0.477c1.122,0.021,2.245,0.026,3.366-0.002c0.408-0.011,0.48,0.143,0.47,0.502
	C70.505,30.927,70.521,31.738,70.521,32.548z"/>
<path fill-rule="evenodd" fill="#FEFEFE" d="M45.038,34.283c1.755,6.369,3.879,12.447,5.831,18.58
	c0.143,0.449,0.019,0.5-0.388,0.499c-3.456-0.014-6.913-0.021-10.368,0.006c-0.577,0.005-0.644-0.13-0.476-0.647
	c1.366-4.229,2.725-8.461,4.052-12.703C44.26,38.195,44.645,36.32,45.038,34.283z"/>
</svg>
