<?xml version="1.0" encoding="utf-8"?>
<!-- Generator: Adobe Illustrator 16.0.0, SVG Export Plug-In . SVG Version: 6.00 Build 0)  -->
<svg version="1.2" baseProfile="tiny" id="Layer_1" xmlns="http://www.w3.org/2000/svg" xmlns:xlink="http://www.w3.org/1999/xlink"
	 x="0px" y="0px" width="100px" height="100px" viewBox="0 0 100 100" xml:space="preserve">
<path fill-rule="evenodd" fill="#FFFFFF" d="M54.358,99.969c-2.916,0-5.832,0-8.748,0c0.044-0.374-0.265-0.214-0.397-0.226
	c-1.805-0.158-3.602-0.397-5.364-0.805C22.529,94.928,10.391,84.728,3.5,68.34c-1.824-4.336-2.841-8.897-3.275-13.585
	C0.213,54.622,0.377,54.313,0,54.358c0-2.916,0-5.833,0-8.748c0.213-0.145,0.215-0.145,0.235-0.396
	c0.18-2.222,0.512-4.426,1.064-6.582C5.585,21.901,15.698,10.17,31.628,3.5c4.339-1.817,8.899-2.834,13.585-3.273
	C45.346,0.214,45.655,0.375,45.611,0c2.916,0,5.832,0,8.748,0c-0.044,0.375,0.263,0.214,0.397,0.226
	c1.805,0.158,3.602,0.397,5.363,0.805c17.319,4.011,29.46,14.21,36.35,30.598c1.822,4.336,2.84,8.897,3.274,13.585
	c0.012,0.131-0.152,0.443,0.226,0.396c0,2.916,0,5.832,0,8.748c-0.213,0.146-0.215,0.146-0.235,0.395
	c-0.162,1.909-0.43,3.804-0.871,5.668c-4.107,17.363-14.446,29.427-30.928,36.207c-4.213,1.732-8.64,2.69-13.179,3.114
	C54.621,99.755,54.314,99.595,54.358,99.969z M23.379,27.128c-0.375,0-0.75-0.021-1.123,0.007c-0.33,0.024-0.661,0.085-0.984,0.161
	c-3.488,0.815-5.584,3.138-6.769,6.375c-0.997,2.728-1.115,5.574-0.867,8.434c0.189,2.174,0.762,4.244,1.947,6.118
	c3.214,5.082,9.021,4.992,12.17,3.011c2.386-1.501,3.394-3.894,4.082-6.48c0.07-0.264-0.087-0.326-0.272-0.393
	c-1.17-0.423-2.346-0.834-3.509-1.279c-0.33-0.127-0.324,0.064-0.373,0.262c-0.192,0.767-0.401,1.526-0.755,2.238
	c-0.559,1.122-1.346,1.999-2.566,2.409c-2.224,0.749-4.608-0.467-5.598-2.841c-0.635-1.525-0.789-3.143-0.833-4.763
	c-0.058-2.105,0.023-4.209,0.919-6.175c1.017-2.23,3.341-3.366,5.551-2.696c1.721,0.521,2.631,1.812,3.076,3.475
	c0.095,0.354,0.213,0.479,0.587,0.366c1.114-0.336,2.23-0.661,3.356-0.956c0.323-0.084,0.397-0.206,0.321-0.515
	C30.608,29.292,27.31,27.012,23.379,27.128z M50.274,42.982c0.03-1.92-0.398-3.864-1.534-5.613c-1.611-2.479-3.908-3.696-6.859-3.49
	c-2.84,0.198-4.941,1.617-6.181,4.197c-1.568,3.265-1.562,6.631-0.182,9.912c2.098,4.986,8.761,6.039,12.357,2.031
	C49.631,48.062,50.294,45.708,50.274,42.982z M70.052,72.426c-0.056-0.256-0.078-0.353-0.097-0.449
	c-0.992-5.142-1.981-10.285-2.976-15.426c-0.114-0.591-0.076-1.355-0.434-1.718c-0.396-0.401-1.186-0.066-1.797-0.142
	c-0.575-0.072-0.591,0.177-0.476,0.637c0.294,1.188,0.551,2.388,0.82,3.584c1.21,5.371,2.422,10.741,3.622,16.114
	c0.076,0.343,0.202,0.498,0.576,0.473c0.476-0.034,0.96-0.046,1.436,0.002c0.475,0.047,0.632-0.149,0.732-0.586
	c1.328-5.707,2.674-11.408,4.017-17.11c0.025-0.104-0.035-0.271,0.176-0.267c0.02,0.058,0.045,0.114,0.061,0.174
	c1.277,5.398,2.552,10.797,3.835,16.194c0.124,0.519,0.055,1.24,0.46,1.494c0.395,0.246,1.052,0.038,1.585,0.102
	c0.512,0.06,0.663-0.165,0.768-0.617c0.81-3.503,1.642-6.999,2.468-10.498c0.712-3.013,1.407-6.03,2.146-9.036
	c0.143-0.578,0.012-0.724-0.55-0.662c-0.412,0.044-0.835,0.038-1.248,0c-0.389-0.037-0.502,0.157-0.569,0.481
	c-0.799,3.866-1.601,7.731-2.405,11.596c-0.38,1.82-0.768,3.641-1.182,5.602c-0.081-0.554-0.134-0.967-0.202-1.376
	c-0.897-5.356-2.417-10.571-3.612-15.859c-0.067-0.299-0.183-0.46-0.536-0.443c-0.665,0.03-1.333,0.03-1.998,0
	c-0.375-0.019-0.498,0.14-0.577,0.477c-0.827,3.477-1.661,6.951-2.509,10.423C71.045,67.807,70.532,70.031,70.052,72.426z
	 M72.933,44.522c1.499,0,2.999-0.014,4.496,0.009c0.415,0.006,0.581-0.079,0.572-0.539c-0.023-1.333-0.111-2.66-0.391-3.966
	c-0.431-2.007-1.262-3.792-2.995-5.014c-3.565-2.515-8.331-0.992-10.002,3.263c-1.237,3.151-1.241,6.39-0.129,9.582
	c0.948,2.723,2.88,4.268,5.804,4.576c3.478,0.366,6.356-1.499,7.354-4.828c0.101-0.337,0.036-0.44-0.288-0.497
	c-0.94-0.165-1.893-0.298-2.813-0.543c-0.613-0.164-0.847-0.036-1.065,0.574c-0.738,2.056-3.003,2.451-4.473,0.828
	c-0.75-0.83-0.99-1.848-1.129-2.915c-0.053-0.409,0.081-0.544,0.501-0.538C69.895,44.536,71.414,44.522,72.933,44.522z
	 M41.413,66.042c0.238-0.07,0.356-0.111,0.477-0.142c2.759-0.664,4.126-2.212,4.42-5.006c0.375-3.585-1.695-6.064-5.267-6.167
	c-2.766-0.081-5.536-0.008-8.304-0.046c-0.574-0.008-0.673,0.172-0.672,0.699c0.019,6.119,0.011,12.24,0.014,18.359
	c0,0.559-0.183,1.303,0.102,1.625c0.332,0.378,1.099,0.06,1.67,0.131c0.511,0.064,0.616-0.146,0.613-0.623
	c-0.021-2.685,0.001-5.371-0.021-8.056c-0.004-0.477,0.133-0.605,0.595-0.584c0.832,0.036,1.666,0.027,2.498,0.006
	c1.059-0.027,1.894,0.405,2.565,1.188c0.543,0.634,0.991,1.337,1.397,2.064c1.033,1.851,2.05,3.709,3.079,5.563
	c0.104,0.185,0.137,0.443,0.454,0.438c0.885-0.012,1.771-0.005,2.748-0.005c-0.987-1.814-1.921-3.548-2.869-5.272
	C44.038,68.628,43.135,67.059,41.413,66.042z M14.031,65.064c0,3.288,0.007,6.576-0.009,9.864c-0.002,0.416,0.081,0.579,0.541,0.572
	c2.164-0.028,4.328,0.009,6.491-0.031c3.188-0.058,5.5-1.5,6.659-4.517c1.432-3.725,1.488-7.531,0.23-11.299
	c-1.146-3.431-3.406-4.945-7.013-4.957c-2.081-0.006-4.162,0.023-6.242-0.016c-0.584-0.013-0.672,0.188-0.669,0.708
	C14.042,58.614,14.031,61.841,14.031,65.064z M63.413,75.489c0.209,0,0.417,0,0.625,0c0.789,0,0.784,0.002,0.523-0.741
	c-2.117-6.038-4.232-12.076-6.353-18.113c-0.22-0.625-0.292-1.441-0.732-1.813c-0.479-0.4-1.321-0.059-2-0.133
	c-0.463-0.053-0.636,0.146-0.771,0.563c-1.354,4.17-2.729,8.334-4.098,12.498c-0.798,2.429-1.589,4.858-2.399,7.28
	c-0.116,0.348-0.101,0.487,0.312,0.465c0.519-0.026,1.043-0.034,1.561,0.004c0.411,0.028,0.566-0.132,0.68-0.517
	c0.517-1.753,1.082-3.493,1.603-5.244c0.117-0.394,0.269-0.564,0.72-0.559c2.144,0.028,4.289,0.024,6.435,0.002
	c0.405-0.004,0.582,0.129,0.7,0.507c0.479,1.525,0.988,3.042,1.49,4.561C62.116,75.49,62.119,75.489,63.413,75.489z M81.26,39.758
	c0,3.893,0.011,7.786-0.013,11.679c-0.003,0.529,0.147,0.672,0.66,0.647c0.895-0.041,1.794-0.056,2.685,0.004
	c0.632,0.042,0.737-0.187,0.735-0.767c-0.021-6.537-0.013-13.073-0.013-19.61c0-1.229-0.021-2.458,0.01-3.685
	c0.012-0.451-0.141-0.558-0.565-0.545c-0.978,0.029-1.957,0.038-2.934-0.003c-0.492-0.021-0.577,0.153-0.575,0.601
	C81.267,31.973,81.26,35.865,81.26,39.758z M57.019,36.679c0-0.76-0.024-1.322,0.008-1.88c0.024-0.415-0.072-0.589-0.535-0.57
	c-0.893,0.038-1.79,0.036-2.685,0c-0.448-0.018-0.555,0.133-0.548,0.562c0.024,1.519,0.01,3.039,0.01,4.559
	c0,4.039,0.009,8.078-0.012,12.117c-0.003,0.497,0.135,0.639,0.626,0.619c0.955-0.038,1.915-0.04,2.872,0.001
	c0.489,0.021,0.578-0.154,0.577-0.604c-0.005-2.684-0.001-5.37,0.049-8.053c0.024-1.328,0.092-2.667,0.631-3.917
	c0.565-1.314,1.794-1.768,3.086-1.146c0.28,0.135,0.545,0.297,0.841,0.461c0.394-1.269,0.781-2.515,1.168-3.762
	c0.059-0.188,0.058-0.324-0.139-0.477c-1.551-1.207-3.834-0.919-4.997,0.659C57.668,35.658,57.403,36.098,57.019,36.679z"/>
<path fill-rule="evenodd" fill="#03A99D" d="M23.379,27.128c3.931-0.116,7.229,2.165,8.36,6.757c0.076,0.309,0.002,0.43-0.321,0.515
	c-1.125,0.295-2.242,0.62-3.356,0.956c-0.374,0.113-0.492-0.012-0.587-0.366c-0.445-1.663-1.355-2.953-3.076-3.475
	c-2.21-0.67-4.534,0.465-5.551,2.696c-0.896,1.965-0.977,4.069-0.919,6.175c0.044,1.621,0.198,3.238,0.833,4.763
	c0.989,2.375,3.374,3.59,5.598,2.841c1.22-0.41,2.007-1.288,2.566-2.409c0.354-0.712,0.563-1.471,0.755-2.238
	c0.049-0.198,0.043-0.389,0.373-0.262c1.163,0.445,2.338,0.856,3.509,1.279c0.185,0.066,0.342,0.128,0.272,0.393
	c-0.688,2.586-1.695,4.979-4.082,6.48c-3.148,1.981-8.956,2.071-12.17-3.011c-1.185-1.874-1.758-3.943-1.947-6.118
	c-0.248-2.859-0.13-5.706,0.867-8.434c1.185-3.237,3.28-5.56,6.769-6.375c0.323-0.075,0.654-0.137,0.984-0.161
	C22.629,27.106,23.004,27.128,23.379,27.128z"/>
<path fill-rule="evenodd" fill="#03A99D" d="M50.274,42.982c0.021,2.726-0.643,5.08-2.398,7.037
	c-3.596,4.008-10.26,2.955-12.357-2.031c-1.38-3.281-1.386-6.646,0.182-9.912c1.24-2.58,3.34-3.999,6.181-4.197
	c2.952-0.206,5.248,1.011,6.859,3.49C49.876,39.118,50.304,41.062,50.274,42.982z M46.11,42.731c0-1.538-0.375-2.814-1.254-3.848
	c-1.261-1.483-3.299-1.579-4.68-0.208c-1.073,1.066-1.378,2.422-1.447,3.872c-0.068,1.451,0.001,2.882,0.741,4.174
	c0.657,1.147,1.605,1.915,3.013,1.879c1.371-0.035,2.277-0.802,2.908-1.947C45.991,45.564,46.122,44.37,46.11,42.731z"/>
<path fill-rule="evenodd" fill="#03A99D" d="M70.052,72.426c0.48-2.395,0.993-4.619,1.534-6.838
	c0.848-3.472,1.682-6.946,2.509-10.423c0.079-0.337,0.202-0.495,0.577-0.477c0.665,0.03,1.333,0.03,1.998,0
	c0.354-0.017,0.469,0.145,0.536,0.443c1.195,5.288,2.715,10.503,3.612,15.859c0.068,0.409,0.121,0.822,0.202,1.376
	c0.414-1.961,0.802-3.781,1.182-5.602c0.805-3.864,1.606-7.729,2.405-11.596c0.067-0.324,0.181-0.519,0.569-0.481
	c0.413,0.038,0.836,0.044,1.248,0c0.562-0.062,0.692,0.084,0.55,0.662c-0.739,3.006-1.435,6.023-2.146,9.036
	c-0.826,3.499-1.658,6.995-2.468,10.498c-0.104,0.452-0.256,0.677-0.768,0.617c-0.533-0.063-1.19,0.145-1.585-0.102
	c-0.405-0.254-0.336-0.976-0.46-1.494c-1.283-5.397-2.558-10.796-3.835-16.194c-0.016-0.06-0.041-0.116-0.061-0.174
	c-0.211-0.005-0.15,0.163-0.176,0.267c-1.343,5.702-2.688,11.403-4.017,17.11c-0.101,0.437-0.258,0.633-0.732,0.586
	c-0.476-0.048-0.96-0.036-1.436-0.002c-0.374,0.025-0.5-0.13-0.576-0.473c-1.2-5.373-2.412-10.743-3.622-16.114
	c-0.27-1.196-0.526-2.396-0.82-3.584c-0.115-0.46-0.1-0.709,0.476-0.637c0.611,0.075,1.4-0.26,1.797,0.142
	c0.357,0.362,0.319,1.127,0.434,1.718c0.994,5.141,1.983,10.284,2.976,15.426C69.974,72.073,69.996,72.17,70.052,72.426z"/>
<path fill-rule="evenodd" fill="#03A99D" d="M72.933,44.522c-1.519,0-3.038,0.013-4.558-0.008c-0.42-0.006-0.554,0.129-0.501,0.538
	c0.139,1.067,0.379,2.085,1.129,2.915c1.47,1.624,3.734,1.228,4.473-0.828c0.219-0.61,0.452-0.737,1.065-0.574
	c0.921,0.245,1.873,0.378,2.813,0.543c0.324,0.057,0.389,0.16,0.288,0.497c-0.998,3.33-3.877,5.194-7.354,4.828
	c-2.924-0.309-4.855-1.854-5.804-4.576c-1.112-3.191-1.108-6.43,0.129-9.582c1.671-4.255,6.437-5.778,10.002-3.263
	c1.733,1.223,2.564,3.007,2.995,5.014c0.279,1.306,0.367,2.632,0.391,3.966c0.009,0.46-0.157,0.544-0.572,0.539
	C75.932,44.509,74.432,44.522,72.933,44.522z M70.923,41.646c0.851,0,1.703-0.024,2.553,0.01c0.436,0.018,0.535-0.151,0.486-0.535
	c-0.084-0.66-0.18-1.319-0.484-1.919c-0.476-0.936-1.159-1.617-2.271-1.712c-1.217-0.104-2.065,0.472-2.666,1.478
	c-0.402,0.674-0.531,1.426-0.597,2.199c-0.033,0.397,0.112,0.498,0.488,0.488C69.262,41.63,70.092,41.646,70.923,41.646z"/>
<path fill-rule="evenodd" fill="#03A99D" d="M41.413,66.042c1.722,1.017,2.625,2.586,3.498,4.174
	c0.948,1.725,1.882,3.458,2.869,5.272c-0.978,0-1.863-0.007-2.748,0.005c-0.316,0.005-0.35-0.254-0.454-0.438
	c-1.029-1.854-2.046-3.712-3.079-5.563c-0.406-0.728-0.854-1.431-1.397-2.064c-0.672-0.783-1.506-1.216-2.565-1.188
	c-0.832,0.021-1.666,0.03-2.498-0.006c-0.462-0.021-0.6,0.107-0.595,0.584c0.023,2.685,0,5.371,0.021,8.056
	c0.003,0.477-0.102,0.688-0.613,0.623c-0.571-0.071-1.338,0.247-1.67-0.131c-0.284-0.322-0.102-1.066-0.102-1.625
	c-0.003-6.119,0.004-12.24-0.014-18.359c-0.001-0.527,0.099-0.707,0.672-0.699c2.768,0.038,5.539-0.035,8.304,0.046
	c3.572,0.103,5.643,2.582,5.267,6.167c-0.294,2.794-1.661,4.342-4.42,5.006C41.769,65.931,41.65,65.972,41.413,66.042z
	 M34.454,60.419c0,0.979,0.021,1.956-0.01,2.934c-0.013,0.426,0.137,0.528,0.531,0.511c0.623-0.03,1.248,0.004,1.873-0.011
	c1.433-0.035,2.873,0.116,4.297-0.136c1.719-0.305,2.712-1.537,2.715-3.352c0.003-1.798-0.942-3.039-2.691-3.263
	c-2.128-0.273-4.28-0.057-6.42-0.105c-0.326-0.008-0.294,0.218-0.294,0.425C34.454,58.421,34.454,59.42,34.454,60.419z"/>
<path fill-rule="evenodd" fill="#03A99D" d="M14.031,65.064c0-3.224,0.011-6.45-0.012-9.675c-0.003-0.52,0.085-0.721,0.669-0.708
	c2.08,0.039,4.161,0.01,6.242,0.016c3.607,0.012,5.867,1.526,7.013,4.957c1.258,3.768,1.202,7.574-0.23,11.299
	c-1.159,3.017-3.471,4.459-6.659,4.517c-2.164,0.04-4.328,0.003-6.491,0.031c-0.46,0.007-0.542-0.156-0.541-0.572
	C14.038,71.641,14.031,68.353,14.031,65.064z M16.406,65.042c0,2.396,0.02,4.79-0.014,7.185c-0.009,0.604,0.101,0.842,0.771,0.803
	c1.225-0.072,2.455-0.033,3.683-0.055c2.595-0.045,4.058-1.104,4.865-3.575c0.649-1.988,0.73-4.037,0.552-6.107
	c-0.132-1.538-0.48-2.99-1.398-4.271c-0.776-1.081-1.798-1.675-3.133-1.795c-1.581-0.145-3.164-0.028-4.743-0.092
	c-0.474-0.019-0.597,0.135-0.593,0.599C16.418,60.169,16.406,62.605,16.406,65.042z"/>
<path fill-rule="evenodd" fill="#03A99D" d="M63.413,75.489c-1.294,0-1.297,0.001-1.706-1.239c-0.502-1.519-1.011-3.035-1.49-4.561
	c-0.118-0.378-0.295-0.511-0.7-0.507c-2.146,0.022-4.291,0.026-6.435-0.002c-0.451-0.006-0.603,0.165-0.72,0.559
	c-0.521,1.751-1.086,3.491-1.603,5.244c-0.114,0.385-0.269,0.545-0.68,0.517c-0.518-0.038-1.042-0.03-1.561-0.004
	c-0.413,0.022-0.428-0.117-0.312-0.465c0.811-2.422,1.601-4.852,2.399-7.28c1.369-4.164,2.744-8.328,4.098-12.498
	c0.136-0.418,0.309-0.616,0.771-0.563c0.679,0.074,1.521-0.268,2,0.133c0.44,0.371,0.513,1.188,0.732,1.813
	c2.12,6.037,4.235,12.075,6.353,18.113c0.261,0.743,0.266,0.741-0.523,0.741C63.83,75.489,63.622,75.489,63.413,75.489z
	 M56.156,57.009c-0.131,0.567-0.238,1.066-0.361,1.56c-0.66,2.663-1.603,5.239-2.427,7.852c-0.127,0.404-0.104,0.539,0.366,0.531
	c1.686-0.023,3.372-0.018,5.058-0.003c0.398,0.003,0.513-0.081,0.372-0.496c-0.461-1.355-0.892-2.723-1.324-4.089
	C57.282,60.606,56.732,58.847,56.156,57.009z"/>
<path fill-rule="evenodd" fill="#03A99D" d="M81.26,39.758c0-3.893,0.007-7.786-0.01-11.679c-0.002-0.447,0.083-0.622,0.575-0.601
	c0.977,0.042,1.956,0.033,2.934,0.003c0.425-0.013,0.577,0.094,0.565,0.545c-0.03,1.228-0.01,2.457-0.01,3.685
	c0,6.537-0.009,13.073,0.013,19.61c0.002,0.58-0.104,0.809-0.735,0.767c-0.891-0.06-1.79-0.045-2.685-0.004
	c-0.513,0.024-0.663-0.118-0.66-0.647C81.271,47.544,81.26,43.651,81.26,39.758z"/>
<path fill-rule="evenodd" fill="#03A99D" d="M57.019,36.679c0.385-0.581,0.649-1.021,0.952-1.432
	c1.163-1.578,3.446-1.866,4.997-0.659c0.196,0.153,0.197,0.289,0.139,0.477c-0.387,1.247-0.774,2.493-1.168,3.762
	c-0.296-0.164-0.561-0.326-0.841-0.461c-1.292-0.622-2.521-0.168-3.086,1.146c-0.539,1.25-0.606,2.588-0.631,3.917
	c-0.05,2.684-0.054,5.369-0.049,8.053c0.001,0.45-0.088,0.625-0.577,0.604c-0.957-0.041-1.917-0.039-2.872-0.001
	c-0.491,0.02-0.629-0.122-0.626-0.619c0.021-4.039,0.012-8.078,0.012-12.117c0-1.52,0.015-3.04-0.01-4.559
	c-0.007-0.429,0.1-0.58,0.548-0.562c0.895,0.035,1.792,0.037,2.685,0c0.463-0.019,0.56,0.155,0.535,0.57
	C56.994,35.357,57.019,35.919,57.019,36.679z"/>
<path fill-rule="evenodd" fill="#FFFFFF" d="M46.11,42.731c0.011,1.639-0.12,2.833-0.72,3.922c-0.631,1.146-1.537,1.912-2.908,1.947
	c-1.408,0.035-2.355-0.732-3.013-1.879c-0.74-1.292-0.81-2.723-0.741-4.174c0.068-1.45,0.374-2.806,1.447-3.872
	c1.381-1.371,3.419-1.274,4.68,0.208C45.736,39.917,46.11,41.193,46.11,42.731z"/>
<path fill-rule="evenodd" fill="#FFFFFF" d="M70.923,41.646c-0.831,0-1.661-0.016-2.491,0.008c-0.376,0.01-0.521-0.091-0.488-0.488
	c0.065-0.773,0.194-1.524,0.597-2.199c0.601-1.005,1.449-1.582,2.666-1.478c1.112,0.096,1.796,0.777,2.271,1.712
	c0.305,0.6,0.4,1.259,0.484,1.919c0.049,0.383-0.051,0.553-0.486,0.535C72.626,41.622,71.773,41.646,70.923,41.646z"/>
<path fill-rule="evenodd" fill="#FFFFFF" d="M34.454,60.419c0-0.999,0-1.998,0.001-2.997c0-0.207-0.031-0.433,0.294-0.425
	c2.14,0.049,4.292-0.168,6.42,0.105c1.749,0.224,2.694,1.465,2.691,3.263c-0.003,1.814-0.997,3.047-2.715,3.352
	c-1.425,0.252-2.864,0.101-4.297,0.136c-0.625,0.015-1.25-0.02-1.873,0.011c-0.394,0.018-0.544-0.085-0.531-0.511
	C34.476,62.375,34.454,61.397,34.454,60.419z"/>
<path fill-rule="evenodd" fill="#FFFFFF" d="M16.406,65.042c0-2.437,0.012-4.873-0.01-7.31c-0.004-0.464,0.119-0.617,0.593-0.599
	c1.58,0.063,3.162-0.053,4.743,0.092c1.334,0.12,2.357,0.714,3.133,1.795c0.918,1.281,1.266,2.733,1.398,4.271
	c0.178,2.07,0.098,4.119-0.552,6.107c-0.807,2.471-2.271,3.53-4.865,3.575c-1.228,0.021-2.458-0.018-3.683,0.055
	c-0.67,0.039-0.779-0.198-0.771-0.803C16.426,69.832,16.406,67.438,16.406,65.042z"/>
<path fill-rule="evenodd" fill="#FFFFFF" d="M56.156,57.009c0.576,1.838,1.126,3.598,1.684,5.354
	c0.433,1.366,0.863,2.733,1.324,4.089c0.141,0.415,0.026,0.499-0.372,0.496c-1.686-0.015-3.372-0.021-5.058,0.003
	c-0.47,0.008-0.493-0.127-0.366-0.531c0.824-2.612,1.767-5.188,2.427-7.852C55.918,58.075,56.025,57.576,56.156,57.009z"/>
</svg>
