<svg xmlns:svg="http://www.w3.org/2000/svg" xmlns="http://www.w3.org/2000/svg" width="854" height="200" viewBox="0 0 854.00005 199.99999" id="ContantUs" version="1.1">
    <g id="Base" transform="matrix(1.1060657,0,0,1.1060657,150.46849,-911.09751)">
        <path style="fill:none;stroke:#00bebe;stroke-width:4" d="m 527.49769,919.58897 0.0893,29.46428 m -14.81964,-56.63473 14.73038,28.91072 14.56405,-28.91072 m -54.16943,31.31473 17.04632,26.64277 m -28.78934,-1.26269 -1e-5,-54.33631 15.02887,0.0929 c 13.00571,-0.12627 11.86645,13.45851 11.86645,13.45851 0,0 1.62754,13.90886 -11.88325,14.41394 l -15.01207,-0.14554 m -40.4061,-1.76777 23.89404,0 m 5.02158,-26.1377 -29.29443,-0.12627 0.25254,26.14658 -0.33544,26.23763 29.32531,0.0149 m -73.57294,-54.4338 0.45565,45.46784 c 1.76777,9.849 13.1814,9.5849 13.1814,9.5849 0,0 11.10666,0.411 13.3795,-9.72107 l 0.005,-45.58423 0,0 0,0 m -56.93724,55.82534 6.43973,14.39467 m -19.70596,-59.28148 0.0768,35.08963 c 1.13643,9.59645 13.30768,9.4586 13.30768,9.4586 0,0 10.60159,0.6636 13.12696,-9.3423 l 0.0501,-35.23069 c -2.52537,-10.22779 -13.17259,-9.38896 -13.17259,-9.38896 0,0 -10.83629,-1.04188 -13.36167,9.94353 m -55.38156,29.68207 19.82143,0 m -25.89286,15.35715 15.32143,-55.17857 0.35519,0.0151 15.75195,55.34201 m -60.79975,-41.9462 c 0.20849,-3.69459 -1.65196,-8.08434 -4.58376,-10.51567 -4.1525,-2.37634 -9.17285,-3.70639 -13.69515,-1.77836 -2.55813,0.62856 -4.93733,2.06348 -6.2757,4.38657 -3.5608,5.44985 -2.52459,13.84728 3.16517,17.4646 4.74314,3.16673 10.71544,3.68811 15.41479,6.95676 3.5843,2.18709 6.1411,5.70218 6.24335,10.04522 0.37748,6.54787 -2.45773,10.11418 -6.68168,12.75264 -2.9415,1.47707 -6.37408,1.61831 -9.62528,1.46955 -3.14728,-0.16094 -5.90522,-1.37804 -8.00745,-3.7837 -1.69421,-1.71902 -1.88871,-2.29487 -2.6611,-4.5099 -0.33205,-1.3615 -0.71524,-5.77994 -0.71524,-5.77994 m -42.76615,-41.18072 0.45565,45.46844 c 1.76777,9.84899 13.1814,9.58487 13.1814,9.58487 0,0 11.10667,0.41106 13.37951,-9.72111 l 0.005,-45.58475 0,0 0,0 m -71.56934,2.38601 0,54.17858 m -15.89285,-54 15.89287,0 16.2857,0 m -55.75007,-0.31545 c 7.0602,0 12.74405,4.05216 12.74405,9.08555 l 0,34.24578 c 0,5.03339 -5.68385,9.08554 -12.74405,9.08554 -7.060206,0 -12.744053,-4.05215 -12.744053,-9.08554 l 0,-34.24578 c 0,-5.03339 5.683847,-9.08555 12.744053,-9.08555 z m -43.310756,0.0251 c 7.060204,0 12.74405,4.05215 12.74405,9.08554 l 0,34.24578 c 0,5.03339 -5.683846,9.08554 -12.74405,9.08554 -7.060203,0 -12.74405,-4.05215 -12.74405,-9.08554 l 0,-34.24578 c 0,-5.03339 5.683847,-9.08554 12.74405,-9.08554 z m -57.2249076,26.5403 26.4285806,-0.17858 0,0 0.17857,28.03572 c -0.18176,-18.78545 -0.17856,-37.57112 -0.17856,-56.35714 m -26.6071606,-0.25 0.35715,56.78571 m -16.9037014,-42.1418 c 0.20849,-3.69459 -1.65196,-8.08434 -4.58376,-10.51567 -4.152501,-2.37634 -9.172851,-3.70639 -13.695151,-1.77836 -2.55813,0.62856 -4.93733,2.06348 -6.2757,4.38657 -3.5608,5.44985 -2.52459,13.84728 3.16517,17.4646 4.74314,3.16673 10.71544,3.68811 15.41479,6.95676 3.584301,2.18709 6.141101,5.70218 6.243351,10.04522 0.37748,6.54787 -2.45773,10.11418 -6.681681,12.75264 -2.9415,1.47707 -6.37408,1.61831 -9.62528,1.46955 -3.14728,-0.16094 -5.90522,-1.37804 -8.00745,-3.7837 -1.69421,-1.71902 -1.88871,-2.29487 -2.6611,-4.5099 -0.33205,-1.3615 -0.71524,-5.77994 -0.71524,-5.77994" />
    </g>
</svg>
