<svg xmlns:svg="http://www.w3.org/2000/svg" xmlns="http://www.w3.org/2000/svg" xmlns:xlink="http://www.w3.org/1999/xlink" id="EnvelopeFront" viewBox="0 216 800 500" height="500" width="800">
    <defs id="Definitions">
        <linearGradient id="linearGradient4254">
            <stop offset="0" style="stop-color:#b3b3b3;stop-opacity:1" />
            <stop offset="0.50006443" style="stop-color:#b3b3b3;stop-opacity:1" />
            <stop offset="0.50006443" style="stop-color:#a3a3a3;stop-opacity:1" />
            <stop offset="1" style="stop-color:#a3a3a3;stop-opacity:1" />
        </linearGradient>
        <linearGradient xlink:href="#linearGradient4254" id="linearGradient4260" x1="80.185074" y1="553.99957" x2="680.18506" y2="556.14246" gradientUnits="userSpaceOnUse" gradientTransform="translate(-80.138243,345.74009)" />
        <filter id="Color">
            <feColorMatrix in="SourceGraphic" type="matrix" values="0 0 0 0 0
                                                                    1 0 0 0 0
                                                                    0 1 0 0 0
                                                                    0 0 0 1 0" id="feColorMatrix" />
        </filter>
    </defs>
    <g id="FrontLayer" transform="translate(0,-537.36222)">
        <path filter="url(#Color)" d="m0.04683115 751.88257 0 300.00003 599.99998885 0 0-300.00003-2.85351 0-147.51758 105.72069-150 107.49996-150-107.49996-147.5175706-105.72069-2.11132825 0z" id="Front" fill="url(#linearGradient4260)" />
        <path filter="url(#Color)" d="m299.90695 837.31756 150 107.5 150 107.50004-300.00002 0-299.99997684 0L149.90695 944.81756Z" id="FrontTop" style="fill:#ccc;filter:url(#Color)" />
    </g>
    <g id="SubmitLayer" cursor="pointer">
        <path transform="matrix(-1,0,0,-1,600.00009,732.7158)" id="SubmitTop" d="m300.00004 416.46951-34.88373-25-34.88373-25.00001 69.76746 0 69.76746 0-34.88373 25.00001zM299.90698 415.34226l-34.88373-25-34.88373-25.00001 69.76746 0 69.76746 0-34.88373 25.00001" style="fill:#808080;filter:url(#Color)" />
        <path id="SubmitBottom" d="m299.90698 415.34226-34.88373-25-34.88373-25.00001 69.76746 0 69.76746 0-34.88373 25.00001z" style="fill:#808080;filter:url(#Color)" />
        <g id="SubmitTextLayer" style="fill:#fff;filter:url(#Color)">
            <path d="m275.21484 371.04346 0-2.34375q0.63721 0.53466 1.38428 0.80566 0.74707 0.26367 1.50879 0.26367 0.44678 0 0.77637-0.0806 0.33691-0.0806 0.55664-0.21973 0.22705-0.14648 0.33691-0.33691 0.10987-0.19776 0.10987-0.42481 0-0.30762-0.17579-0.54932-0.17578-0.24169-0.48339-0.44677-0.3003-0.20508-0.71778-0.39551-0.41748-0.19043-0.90088-0.38818-1.23047-0.5127-1.83838-1.25245-0.60058-0.73974-0.60058-1.7871 0-0.82032 0.32959-1.40625 0.32959-0.59327 0.89355-0.97413 0.57129-0.38086 1.31836-0.55664 0.74707-0.1831 1.58203-0.1831 0.82032 0 1.4502 0.10254 0.63721 0.0952 1.17187 0.30029l0 2.18994q-0.26367-0.1831-0.57861-0.32226-0.30762-0.13916-0.63721-0.22705-0.32959-0.0952-0.65918-0.13917-0.32226-0.0439-0.61523-0.0439-0.40283 0-0.73242 0.0806-0.32959 0.0732-0.55664 0.2124-0.22705 0.13916-0.35157 0.33691-0.12451 0.19043-0.12451 0.43213 0 0.26367 0.13916 0.47608 0.13916 0.20507 0.39551 0.3955 0.25635 0.18311 0.62256 0.36621 0.36621 0.17579 0.82764 0.36622 0.62988 0.26367 1.12793 0.56396 0.50537 0.29297 0.86425 0.6665 0.35889 0.37354 0.54932 0.85694 0.19043 0.47607 0.19043 1.11328 0 0.87891-0.33691 1.47949-0.32959 0.59326-0.90088 0.9668-0.57129 0.36621-1.33301 0.52734-0.7544 0.16113-1.59668 0.16113-0.86426 0-1.64795-0.14648-0.77637-0.14648-1.34766-0.43945zM291.00586 371.44629l-2.30713 0 0-1.14258-0.0366 0M291.00586 371.44629l-2.30713 0 0-1.14258-0.0366 0q-0.85693 1.32568-2.29248 1.32568-2.60742 0-2.60742-3.15673l0-4.52637 2.30713 0 0 4.32129q0 1.58935 1.25976 1.58935 0.62256 0 0.9961-0.43213 0.37353-0.43945 0.37353-1.18652l0-4.29199 2.30713 0 0 7.5zM295.30518 370.57471l-0.0293 0 0 0.87158-2.31445 0 0-11.10352 2.31445 0 0 4.73145 0.0293 0q0.85693-1.31104 2.43896-1.31104 1.4502 0 2.23389 0.9961 0.78369 0.99609 0.78369 2.72461 0 1.875-0.91553 3.01025-0.91553 1.13525-2.44629 1.13525-1.38428 0-2.09472-1.05468zm-0.0659-3.16407 0 0.76905q0 0.7251 0.41748 1.20117 0.41748 0.47607 1.06933 0.47607 0.79102 0 1.22315-0.60791 0.43945-0.61523 0.43945-1.73584 0-0.93017-0.40283-1.45019-0.39551-0.52735-1.13525-0.52735-0.6958 0-1.15723 0.52002-0.4541 0.52002-0.4541 1.35498zM314.18701 371.44629l-2.30713 0 0-4.27734q0-1.63331-1.20117-1.63331-0.57129 0-0.93017 0.49073-0.35889 0.49072-0.35889 1.22314l0 4.19678-2.31445 0 0-4.32129q0-1.58936-1.1792-1.58936-0.59327 0-0.95215 0.46875-0.35156 0.46875-0.35156 1.27442l0 4.16748-2.31446 0 0-7.5 2.31446 0 0 1.17187 0.0293 0q0.35889-0.60058 1.00342-0.97412 0.65186-0.38086 1.4209-0.38086 1.58935 0 2.17529 1.39893 0.85693-1.39893 2.51953-1.39893 2.44629 0 2.44629 3.01758l0 4.66553zM317.18994 362.75977q-0.58594 0-0.95947-0.34424-0.37354-0.35157-0.37354-0.85694 0-0.52002 0.37354-0.84961 0.37353-0.32959 0.95947-0.32959 0.59326 0 0.95947 0.32959 0.37354 0.32959 0.37354 0.84961 0 0.52735-0.37354 0.86426-0.36621 0.33692-0.95947 0.33692zm1.14258 8.68652-2.31445 0 0-7.5 2.31445 0 0 7.5zM324.8291 371.3584q-0.51269 0.27099-1.54541 0.27099-2.44629 0-2.44629-2.5415l0-3.43506-1.21582 0 0-1.70654 1.21582 0 0-1.61865 2.30713-0.65918 0 2.27783 1.68457 0 0 1.70654-1.68457 0 0 3.03223q0 1.17187 0.93018 1.17187 0.36621 0 0.75439-0.2124l0 1.71387z" id="SubmitText" />
        </g>
    </g>
    <g id="CoverLayer" transform="translate(0,-537)">
        <path d="m300.04683 537.88263 150 107.5 150 107.5-300.00002-0.00001-299.99998885 0L150.04682 645.38263Z" id="Cover" style="fill:#999;filter:url(#Color)" />
    </g>
</svg>
