<svg xmlns:svg="http://www.w3.org/2000/svg" xmlns="http://www.w3.org/2000/svg" width="854" height="200" viewBox="0 0 854.00005 199.99999" id="MeetTheGawds" version="1.1">
    <g id="layer1" transform="translate(0,-852.36231)">
        <g transform="translate(-96.939042,226.71138)" id="layer1-2">
            <g transform="translate(178.98725,17.763998)" id="g4356">
                <g id="g4202" transform="translate(8.2525246,-2.8689654)">
                    <g id="g4188">
                        <g id="g4236" transform="translate(34.345075,-1.188107e-8)" />
                        <g id="g4229" transform="translate(16.593952,0.58240336)" />
                        <g id="g4223" transform="translate(0,0.52265827)">
                            <path id="rect4370" style="fill:none;stroke:#00BEBE;stroke-width:4" d="m 134.00473,680.66365 -32.8494,-0.1439 0.28318,29.79981 -0.37616,29.90359 32.88406,0.0171 m -29.91405,-29.52484 26.8824,0 m 18.05633,0.066 26.8824,0 m 3.8092,-30.15409 -32.84912,-0.14391 0.28318,29.79994 -0.37615,29.90372 32.88377,0.0171 M 46.827062,742.70661 C 46.834962,723.02973 46.60068,678.1933 46.60068,678.1933 l 4.849007,17.36466 13.774251,42.22972 1.512182,-0.025 13.686034,-42.23862 4.630555,-17.20253 -0.377706,64.36207 m 106.468787,-62.34319 17.65083,0 18.08711,0 m -18.08713,-0.20666 0,62.69766 m 181.62374,-62.14756 -32.90131,-0.14389 0.28363,29.79796 -0.37675,29.90175 32.93602,0.0171 m -32.41746,-29.78506 26.836,0 m -119.65389,-29.7581 17.65679,0 18.09321,0 m -18.09323,-0.20666 0,62.69665 m 29.79388,-65.92405 0.39384,65.26157 m -0.19692,-32.22032 29.14356,-0.20526 0,0 0.19691,32.22036 c -0.20044,-21.58939 -0.1969,-43.17901 -0.1969,-64.76903 m 133.91073,65.05304 16.37363,-61.49932 0.37959,0.0157 16.83389,61.68144 m -27.12801,-16.64193 21.2429,0 m -42.51891,-29.52075 c 0.3576,-16.35514 -13.3564,-15.37032 -13.3564,-15.37032 0,0 -16.57491,-1.19585 -16.21731,14.6317 l -0.0536,31.53204 c 1.1622,12.48618 14.3935,11.90584 14.3935,11.90584 0,0 15.10868,-0.19345 15.10868,-12.67964 l 0,-15.19446 -12.60548,0 m 12.5991,16.97101 0,12.68806 0,0 0,0 m 52.23323,-62.88754 15.1019,63.85278 3.96286,-18.45459 9.33264,-42.72173 0.44433,0.0249 9.56518,42.73062 3.56594,18.5162 15.41384,-63.888 m 15.47166,1.09985 16.52539,0 c 7.19434,0 11.60336,5.23009 12.73471,11.13024 l 0,37.44824 c -0.37712,4.96913 -5.28896,11.13024 -12.98612,11.13024 -5.40912,0.005 -10.81824,-0.0124 -16.22716,-0.0647 z m 74.89488,14.99561 c 0.22952,-4.0892 -1.81841,-8.94776 -5.04553,-11.63867 -4.5708,-2.63014 -10.09671,-4.10228 -15.07464,-1.96821 -2.81568,0.69558 -5.43469,2.28375 -6.90774,4.85503 -3.91953,6.03185 -2.77885,15.32603 3.48382,19.32969 5.22111,3.50492 11.79489,4.08193 16.96762,7.69968 3.94533,2.42068 6.75968,6.31122 6.87221,11.11808 0.41548,7.247 -2.70529,11.19434 -7.35471,14.11456 -3.23777,1.63485 -7.01616,1.79107 -10.59487,1.62663 -3.46429,-0.17835 -6.50014,-1.52536 -8.81393,-4.18806 -1.86503,-1.90257 -2.07891,-2.53973 -2.92915,-4.99147 -0.36556,-1.50686 -0.78751,-6.39723 -0.78751,-6.39723" />
                        </g>
                    </g>
                </g>
            </g>
        </g>
    </g>
</svg>
