<?xml version="1.0" encoding="utf-8"?>
<!-- Generator: Adobe Illustrator 16.0.0, SVG Export Plug-In . SVG Version: 6.00 Build 0)  -->
<svg version="1.2" baseProfile="tiny" id="Layer_1" xmlns="http://www.w3.org/2000/svg" xmlns:xlink="http://www.w3.org/1999/xlink"
	 x="0px" y="0px" width="100px" height="100px" viewBox="0 0 100 100" xml:space="preserve">
<path fill-rule="evenodd" fill="#FFFFFF" d="M99.999,45.75c0,2.833,0,5.667,0,8.5c-0.205,0.178-0.209,0.178-0.229,0.42
	c-0.157,1.952-0.447,3.886-0.882,5.794C95.574,75.04,87.42,86.078,74.512,93.566c-6.127,3.555-12.781,5.563-19.841,6.212
	c-0.145,0.014-0.427-0.121-0.421,0.221c-2.834,0-5.667,0-8.5,0c-0.024-0.359-0.318-0.21-0.483-0.226
	c-1.493-0.136-2.976-0.337-4.447-0.627c-13.792-2.719-24.634-9.931-32.496-21.551C3.645,70.68,0.994,62.994,0.22,54.671
	C0.207,54.526,0.342,54.244,0,54.25c0-2.834,0-5.667,0-8.5c0.34,0.004,0.208-0.277,0.22-0.42c0.129-1.516,0.335-3.021,0.632-4.511
	c2.843-14.279,10.413-25.36,22.654-33.203C30.151,3.358,37.467,0.953,45.33,0.22c0.143-0.013,0.426,0.123,0.42-0.22
	c2.833,0,5.667,0,8.5,0c-0.006,0.341,0.276,0.208,0.42,0.22c1.515,0.134,3.019,0.339,4.51,0.633
	C73.158,3.618,84.094,10.965,91.95,22.82c4.515,6.813,7.074,14.36,7.828,22.509C99.792,45.473,99.657,45.754,99.999,45.75z
	 M23.711,49.646c0,2.438,0,4.875,0,7.313c0,4.146,0.01,8.291-0.013,12.438c-0.003,0.526,0.144,0.667,0.66,0.648
	c1.103-0.041,2.21-0.052,3.311,0.004c0.616,0.031,0.748-0.159,0.745-0.755c-0.026-5.042-0.004-10.083-0.029-15.125
	c-0.003-0.564,0.157-0.685,0.696-0.678c2.333,0.03,4.666,0.007,6.999,0.016c1.604,0.005,3.205-0.021,4.798-0.247
	c3.635-0.516,6.512-2.129,8.087-5.592c1.855-4.077,1.96-8.22,0.251-12.361c-1.271-3.078-3.6-4.918-6.875-5.567
	c-1.272-0.252-2.554-0.373-3.846-0.377c-4.708-0.015-9.416-0.006-14.124-0.04c-0.575-0.004-0.673,0.174-0.671,0.701
	C23.718,36.563,23.711,43.105,23.711,49.646z M65.881,70.704c2.331-0.003,4.53-0.428,6.442-1.754
	c3.204-2.221,4.317-5.384,3.854-9.148c-0.336-2.733-1.851-4.625-4.393-5.681c-0.824-0.344-1.655-0.68-2.502-0.967
	c-2.265-0.771-4.55-1.482-6.804-2.278c-1.472-0.518-2.318-1.727-2.312-3.093c0.007-1.41,0.922-2.753,2.317-3.258
	c1.688-0.611,3.431-0.698,5.157-0.201c2.013,0.58,2.962,2.108,3.333,4.057c0.077,0.408,0.173,0.507,0.59,0.419
	c0.813-0.171,1.644-0.266,2.465-0.4c1.383-0.226,1.354-0.223,1.074-1.624c-0.714-3.575-2.883-5.699-6.391-6.543
	c-1.517-0.365-3.049-0.458-4.59-0.335c-4.747,0.38-7.764,3.263-8.162,7.894c-0.257,2.995,0.983,6.249,4.433,7.744
	c1.684,0.73,3.419,1.305,5.171,1.838c1.452,0.441,2.918,0.845,4.305,1.481c1.313,0.603,1.975,1.644,1.93,3.074
	c-0.06,1.91-1.003,3.285-2.745,4.045c-1.412,0.617-2.915,0.641-4.421,0.418c-2.084-0.308-3.548-1.438-4.401-3.362
	c-0.313-0.71-0.524-1.449-0.61-2.219c-0.04-0.355-0.161-0.444-0.522-0.37c-1.14,0.236-2.286,0.45-3.438,0.634
	c-0.398,0.063-0.474,0.232-0.385,0.582c0.174,0.686,0.291,1.388,0.503,2.061c0.915,2.9,2.558,5.172,5.535,6.255
	C62.8,70.514,64.351,70.66,65.881,70.704z"/>
<path fill-rule="evenodd" fill="#01A99D" d="M23.711,49.646c0-6.542,0.006-13.083-0.012-19.624
	c-0.001-0.527,0.096-0.705,0.671-0.701c4.708,0.034,9.416,0.025,14.124,0.04c1.292,0.004,2.574,0.125,3.846,0.377
	c3.275,0.649,5.604,2.489,6.875,5.567c1.709,4.141,1.604,8.285-0.251,12.361c-1.575,3.463-4.452,5.077-8.087,5.592
	c-1.594,0.226-3.194,0.252-4.798,0.247c-2.333-0.009-4.667,0.015-6.999-0.016c-0.539-0.007-0.699,0.113-0.696,0.678
	c0.025,5.042,0.003,10.083,0.029,15.125c0.003,0.596-0.129,0.786-0.745,0.755c-1.101-0.056-2.208-0.045-3.311-0.004
	c-0.516,0.019-0.663-0.122-0.66-0.648c0.023-4.146,0.013-8.291,0.013-12.438C23.711,54.521,23.711,52.084,23.711,49.646z
	 M28.4,41.429c0,2.206,0.014,4.413-0.012,6.619c-0.005,0.473,0.128,0.6,0.595,0.588c1.311-0.032,2.622,0.006,3.933-0.015
	c2.183-0.035,4.372,0.133,6.55-0.125c2.627-0.312,4.698-1.425,5.588-4.09c0.672-2.011,0.707-4.066,0.024-6.073
	c-0.69-2.025-1.964-3.523-4.2-3.919c-0.653-0.115-1.324-0.167-1.987-0.172c-3.309-0.023-6.618-0.012-9.927-0.042
	c-0.495-0.004-0.578,0.169-0.574,0.611C28.411,37.017,28.4,39.223,28.4,41.429z"/>
<path fill-rule="evenodd" fill="#01A99D" d="M65.881,70.704c-1.53-0.044-3.081-0.19-4.566-0.731
	c-2.978-1.083-4.62-3.354-5.535-6.255c-0.212-0.673-0.329-1.375-0.503-2.061c-0.089-0.35-0.014-0.519,0.385-0.582
	c1.151-0.184,2.298-0.397,3.438-0.634c0.361-0.074,0.482,0.015,0.522,0.37c0.086,0.77,0.297,1.509,0.61,2.219
	c0.854,1.924,2.317,3.055,4.401,3.362c1.506,0.223,3.009,0.199,4.421-0.418c1.742-0.76,2.686-2.135,2.745-4.045
	c0.045-1.431-0.616-2.472-1.93-3.074c-1.387-0.637-2.853-1.04-4.305-1.481c-1.752-0.533-3.487-1.107-5.171-1.838
	c-3.449-1.495-4.689-4.749-4.433-7.744c0.398-4.631,3.415-7.514,8.162-7.894c1.541-0.124,3.073-0.03,4.59,0.335
	c3.508,0.845,5.677,2.969,6.391,6.543c0.28,1.4,0.309,1.397-1.074,1.624c-0.821,0.134-1.651,0.229-2.465,0.4
	c-0.417,0.088-0.513-0.011-0.59-0.419c-0.371-1.948-1.32-3.477-3.333-4.057c-1.727-0.497-3.47-0.411-5.157,0.201
	c-1.396,0.505-2.311,1.849-2.317,3.258c-0.007,1.366,0.84,2.575,2.312,3.093c2.254,0.795,4.539,1.507,6.804,2.278
	c0.847,0.287,1.678,0.623,2.502,0.967c2.542,1.056,4.057,2.947,4.393,5.681c0.464,3.765-0.649,6.928-3.854,9.148
	C70.411,70.276,68.212,70.701,65.881,70.704z"/>
<path fill-rule="evenodd" fill="#FEFEFE" d="M28.4,41.429c0-2.207,0.011-4.413-0.01-6.619c-0.004-0.442,0.079-0.615,0.574-0.611
	c3.309,0.03,6.619,0.019,9.927,0.042c0.663,0.005,1.334,0.057,1.987,0.172c2.236,0.396,3.51,1.895,4.2,3.919
	c0.683,2.007,0.648,4.062-0.024,6.073c-0.891,2.665-2.961,3.779-5.588,4.09c-2.178,0.258-4.367,0.089-6.55,0.125
	c-1.311,0.021-2.623-0.017-3.933,0.015c-0.467,0.012-0.6-0.116-0.595-0.588C28.414,45.842,28.4,43.635,28.4,41.429z"/>
</svg>
