<svg xmlns:svg="http://www.w3.org/2000/svg" xmlns="http://www.w3.org/2000/svg" width="854" height="200" viewBox="0 0 854.00005 199.99999" id="WhatWeDo" version="1.1">
    <g id="layer1" transform="translate(38.47,-411.57)" style="display:inline">
        <path id="Base" style="fill:none;stroke:#00BEBE;stroke-width:4" d="m 461.97109,511.49571 26.8824,0 m 3.8092,-30.15409 -32.84912,-0.14391 0.28318,29.79994 -0.37615,29.90373 32.88377,0.0171 m -167.47979,-59.20487 17.6568,0 18.09321,0 m -18.09323,-0.20666 0,62.69665 m -97.17823,-64.88688 0.39384,65.26157 m -0.19692,-32.22032 29.14356,-0.20526 0,0 0.19691,32.22036 c -0.20044,-21.58939 -0.1969,-43.17901 -0.1969,-64.76903 m 252.02599,1.80773 16.52539,0 c 7.19434,0 11.60336,5.23009 12.73471,11.13024 l 0,37.44824 c -0.37712,4.96913 -5.28896,11.13024 -12.98612,11.13024 -5.40912,0.005 -10.81824,-0.0124 -16.22716,-0.0647 z m -138.78968,-2.58729 15.1019,63.8528 3.96287,-18.45459 9.33265,-42.72175 0.44433,0.0249 9.56518,42.73064 3.56594,18.5162 15.41384,-63.88802 m -156.66878,65.02097 16.37364,-61.49932 0.37959,0.0157 16.83389,61.68144 m -27.12802,-16.64193 21.24291,0 m -142.8485,-48.63704 15.1019,63.85279 3.96287,-18.45459 9.33264,-42.72174 0.44433,0.0249 9.56518,42.73063 3.56594,18.5162 15.41384,-63.88801 m 357.77988,2.7837 c 7.56948,0 13.66331,4.62634 13.66331,10.37295 l 0,39.09833 c 0,5.74661 -6.09383,10.37295 -13.66331,10.37295 -7.56947,0 -13.6633,-4.62634 -13.6633,-10.37295 l 0,-39.09833 c 0,-5.74661 6.09383,-10.37295 13.6633,-10.37295 z" />
    </g>
</svg>
