<svg xmlns:svg="http://www.w3.org/2000/svg" xmlns="http://www.w3.org/2000/svg" xml:space="preserve" width="854" height="480" viewBox="0 0 854 472.27" id="svg2" version="1.1" style="image-rendering:optimizeQuality;shape-rendering:geometricPrecision;text-rendering:geometricPrecision">
  <g id="_113945008" transform="matrix(0.30820934,0,0,0.30820934,-443.19085,-259.74866)">
    <g id="Photoshop">
      <path d="m3410.17 2298.25 321.33 1.3-0.2552-321.096-320.9852 0zm207.6042-177.242 0 1.3393c0 12.9898 43.6329 17.7677 43.6329 45.5704l0 6.7015c0 18.0381-17.2062 29.4854-35.6992 29.4854l-9.2555 0c-10.202 0-13.7846-3.6211-21.1544-5.3609l0-24.1245c5.1525 1.3939 13.1529 8.0407 19.8328 8.0407l11.8989 0c6.1038 0 10.5784-2.9676 10.5784-9.3813l0-2.681c0-13.0283-42.3101-14.4222-42.3101-46.9098l0-5.3595c0-14.0563 17.5961-26.8056 33.0546-26.8056l14.5448 0c7.2996 0 8.8429 2.6736 14.5436 4.0203l0 18.7636c0 6.9408-14.0836-2.6798-25.1219-2.6798l-2.6446 0c-5.1622 0-11.9001 5.1129-11.9001 9.3812zm-83.2974 28.1449-18.511 0 0 53.611-23.7991 0 0-144.7486c0-3.0891 0.9199-4.0203 3.9662-4.0203l39.6668 0c26.1871 0 44.9535 19.5709 44.9535 46.9085l0 4.0215c0 23.3531-23.0292 44.2274-46.2765 44.2274zm-107.0975 132.6869 288.2368 0 0-284.1354-288.2368 0 0 284.1354zm88.5807-154.9798 5.2899 0c20.777 0 34.3806-4.1484 34.3806-24.8576l0-3.9244c0-14.0684-12.0191-22.2417-26.447-22.2417l-13.2235 0 0 51.0238z" style="fill:none;stroke-width:3;stroke:#00a9ae"/>
    </g>
  </g>
  <g id="HTML" transform="matrix(0.30820934,0,0,0.30820934,-445.19085,-271.74866)">
    <path d="m3836.615 1115.444 0.42 5.0417 0.4201 4.6205 0.42 4.6205 0.4201 4.6205 0.42 5.0417 0.4201 4.6205 0.42 4.6205 0.4201 4.6204 0.42 4.6217 0.42 5.0406 0.4201 4.6204 0.42 4.6205 0.4201 4.6217 0.42 5.0405 0.4201 4.6205 0.4212 4.6205 0.4188 4.6217 0.4213 4.6205 0.4188 5.0405 0.4213 4.6205 0.42 4.6216 0.4201 4.6205 0.42 4.6205 0.4201 5.0405 0.42 4.6217 0.4201 4.6205 0.42 4.6205 0.42 5.0405 0.4201 4.6217 0.42 4.6205 0.4201 4.6204 0.42 4.6205 0.4201 5.0418 0.42 4.6204 0.42 4.6205 0.4201 4.6205 0.42 5.0417 0.4201 4.6205 0.42 4.6205 0.4201 4.6205 0.42 4.6204 0.4201 5.0418 0.42 4.6205 0.42 4.6204 0.4201 4.6205 0.42 4.6217 0.4201 5.0405 0.42 4.6205 0.4201 4.6205 0.42 4.6217 0.4201 5.0405 0.42 4.6205 0.42 4.6205 0.4201 4.6216 0.42 4.6205 0.4201 5.0405 0.42 4.6205 0.4201 4.6217 0.42 4.6205 0.42 4.6205 0.4213 5.0417 0.4188 4.6205 0.4213 4.6205 0.4188 4.6204 0.4213 1.2602 0.42 0.42 1.6802 0.4201 1.2601 0.42 1.6802 0.42 1.2601 0.4213 1.6802 0.4188 1.6802 0.4213 1.2601 0.42 1.6802 0.4201 1.2601 0.42 1.6802 0.4201 1.6813 0.42 1.259 0.4201 1.6813 0.42 1.2602 0.42 1.6801 0.4201 1.6802 0.42 1.2601 0.4201 1.6802 0.42 1.2601 0.4201 1.6802 0.42 1.6802 0.42 1.2601 0.4201 1.6802 0.42 1.2601 0.4201 1.6802 0.42 1.6814 0.4201 1.2601 0.42 1.6802 0.4201 1.6801 0.42 1.2602 0.42 1.6801 0.4201 1.2602 0.42 1.6801 0.4201 1.6802 0.42 1.2613 0.4201 1.6802 0.42 1.2589 0.4201 1.6814 0.42 1.6802 0.42 1.2601 0.4201 1.6802 0.4212 1.2601 0.4189 1.6802 0.4212 1.6802 0.4189 1.2601 0.4212 1.6802 0.4188 1.2601 0.4213 1.6814 0.4188 1.6801 0.4213 1.259 0.42 1.6813 0.4201 1.2602 0.42 1.6801 0.4201 1.6802 0.42 1.2601 0.42 1.6802 0.4201 1.2601 0.42 1.6802 0.4201 1.6802 0.42 1.2601 0.4201 1.6814 0.42 1.2589 0.4201 1.6814 0.42 1.6802 0.42 1.2601 0.4201 1.6802 0.42 1.2601 0.4201 1.6802 0.42 1.6801 0.4201 1.2602 0.42 1.6801 0.4201 1.2602 0.42 1.6813 0.42 1.6802 0.4201 1.2589 0.42 1.6814 0.4201 1.2601 0.42 1.6802 0.4201 1.6802 0.42 3.3603 0 1.2602-0.42 1.6801-0.4201 1.2602-0.42 1.6801-0.4201 1.6802-0.42 1.2613-0.4201 1.6802-0.42 1.2601-0.42 1.6802-0.4201 1.6802-0.42 1.2601-0.4201 1.6802-0.42 1.2601-0.4201 1.6802-0.42 1.6801-0.4201 1.2602-0.42 1.6801-0.42 1.2614-0.4201 1.6802-0.42 1.6801-0.4201 1.2602-0.42 1.6801-0.4201 1.6802-0.42 1.2601-0.4201 1.6802-0.42 1.2601-0.42 1.6802-0.4201 1.6802-0.42 1.2601-0.4201 1.6802-0.42 1.2613-0.4213 1.6802-0.4188 1.6801-0.4213 1.2602-0.4188 1.6801-0.4212 1.2602-0.4189 1.6801-0.4212 1.6802-0.4189 1.2601-0.4212 1.6802-0.4201 1.2601-0.42 1.6802-0.42 1.6802-0.4201 1.2613-0.42 1.6802-0.4201 1.2601-0.42 1.6802-0.4201 1.6802-0.42 1.2601-0.4201 1.6802-0.42 1.6801-0.42 1.2602-0.4201 1.6801-0.42 1.2602-0.4201 1.6801-0.42 1.6814-0.4201 1.2601-0.42 1.6802-0.4201 1.2601-0.42 1.6802-0.42 1.6802-0.4201 1.2601-0.42 1.6802-0.4201 1.2601-0.42 1.6802-0.4201 1.6802-0.42 1.2601-0.42 1.6802-0.4201 1.2613-0.42 1.6802-0.4201 1.6801-0.42 1.2602-0.4201 1.6801-0.42 1.2602-0.4213 1.6801-0.4188 1.6802-0.4213 1.2601-0.42 1.6802-0.42 1.6802-0.4201 0.42-0.42 0.4213-1.6802 0.4188-4.6205 0.4213-4.6205 0.4188-4.6204 0.4212-4.6217 0.4201-5.0405 0.42-4.6205 0.4201-4.6205 0.42-4.6217 0.4201-4.6205 0.42-5.0405 0.4201-4.6205 0.42-4.6217 0.42-4.6204 0.4201-4.6205 0.42-5.0405 0.4201-4.6217 0.42-4.6205 0.4201-4.6205 0.42-4.6217 0.42-5.0405 0.4201-4.6205 0.42-4.6205 0.4201-4.6217 0.42-4.6204 0.4201-5.0406 0.42-4.6204 0.4201-4.6217 0.42-4.6205 0.42-4.6205 0.4201-5.0405 0.42-4.6217 0.4201-4.6205 0.42-4.6205 0.4201-4.6204 0.42-5.0418 0.4201-4.6204 0.42-4.6205 0.42-4.6205 0.4201-4.6205 0.42-5.0417 0.4201-4.6205 0.42-4.6205 0.4201-4.6205 0.42-4.6216 0.4213-5.0406 0.4188-4.6204 0.4212-4.6205 0.4189-4.6217 0.4212-4.6205 0.4201-5.0405 0.42-4.6205 0.4201-4.6217 0.42-4.6205 0.4201-4.6205 0.42-5.0405 0.42-4.6217 0.4201-4.6204 0.42-4.6205 0.4201-5.0405 0.42-4.6217 0.4201-4.6205 0.42-4.6205 0.42-4.6205 0.4201-5.0417 0-1.2601-298.25 0 0 1.2601zm194.495 176.426-3.8445 45.3623-41.5226 11.3472 0 38.6464c3.2756-0.2736 18.4734-4.6713 21.8374-5.8867 5.3637-1.938 15.8745-4.7354 21.6728-6.0537 7.4712-1.6983 14.7088-4.2512 21.6897-6.0331 15.7777-4.0298 9.5121-0.3014 12.1982-15.5271 1.2347-7.0003 1.5409-17.9614 2.3859-25.3394 0.7771-6.7957 2.1861-19.5084 2.1292-25.5948-0.04-4.2985 1.2299-8.7955 1.2771-12.5856 0.051-4.2307 0.3861-8.8475 0.8534-13.008 0.7493-6.659 2.4912-18.8233 2.4912-25.2353l-86.535 0 0 36.9663 45.7884 0-0.4212 2.9415zm-46.21 95.36 0.8401 0 0-38.6464-41.6497-10.9163-2.4573-29.8316-37.3863 0c0 11.7757 2.0457 24.8346 2.9366 36.9699 0.3753 5.1047 1.7298 12.7429 1.6742 18.0691-0.046 4.4183 1.6414 3.8809 5.3806 4.7016 2.2915 0.5011 4.8904 1.432 7.9046 2.1765 4.3287 1.07 11.11 2.8604 15.4218 4.3227 5.1325 1.7407 10.6742 2.6485 15.7038 4.4582 4.1278 1.4865 28.3511 8.4227 31.6316 8.6963zm0.84-38.65 41.53-11.35 3.84-45.36 0-2.52-45.37 0zm0-59.23 45.3671 0 0 2.5203 0.4213-2.9416-45.7884 0 0-36.9663-49.5676 0 0-2.5202-3.1038-35.6916 52.6713-0.013 0-36.9663 92.8357 0 0 2.1002 0.4201-2.5215c-62.1705 0-124.3409 0-186.5114 0 0 7.6007 1.5627 16.2643 2.1038 23.5212 0.5799 7.7835 0.6065 16.4216 1.7661 23.8577 2.2673 14.5429 2.8338 32.1388 4.5007 47.1696 0.3583 3.2321 0.8885 8.6841 0.8764 11.7237-0.029 7.5003-0.2566 6.728 6.2958 6.728l26.0439 0 51.669 0zm-49.56-39.91 0.42 2.11 49.14 0 0-37.81-52.67 0.01zm49.56-35.7 89.85-0.01 2.99-34.86 0-2.1-92.84 0zm-21.84-162.99 16.8 0 0-18.9-52.93 0 0 18.9 16.81 0 0 37.81 19.32 0zm-63.43-0.42-16.8 0 0-18.48-19.33 0 0 56.71 19.33 0 0-18.91 16.8 0 0 18.91 19.74 0 0-56.71-19.74 0zm114.26 22.69 0.42 0.42 0.42 0.84 0.42 0.84 0.42 0.42 0.42 0.84 0.42 0.42 0.42 0.84 0.42 0.42 0.42 0.84 0.42 0.42 0.42 0.84 0.42 0.42 1.26 0 0.42-0.84 0.42-0.42 0.42-0.84 0.42-0.42 0.42-0.84 0.42-0.42 0.42-0.84 0.42-0.42 0.42-0.84 0.42-0.42 0.42-0.84 0.42-0.84 0.42-0.42 0.42-0.84 0.42-0.42 0.42-0.85 0.42-0.42 0.42-0.84 0.42-0.42 0.42-0.84 0.42-0.42 0.42-0.84 0.42-0.84 0.42-0.42 0.42-0.84 0.42-0.42 0.42-0.84 0.42-0.42 0.42-0.84 0 26.89 19.32 0 0-56.71-20.16 0-0.42 0.42-0.42 0.42-0.42 0.84-0.42 0.84-0.42 0.42-0.42 0.84-0.42 0.42-0.42 0.84-0.42 0.84-0.42 0.42-0.42 0.84-0.42 0.84-0.42 0.42-0.42 0.84-0.42 0.84-0.42 0.42-0.42 0.84-0.42 0.42-0.42 0.84-0.42 0.84-0.42 0.42-0.42 0.84-0.42 0.84-0.42 0.42-0.42 0.84-0.42 0.84-0.42 0.42-0.42 0.84-0.42-0.42-0.42-0.84-0.42-0.42-0.42-0.84-0.42-0.84-0.42-0.42-0.42-0.84-0.42-0.42-0.42-0.84-0.42-0.84-0.42-0.42-0.42-0.84-0.42-0.84-0.42-0.42-0.42-0.84-0.42-0.84-0.42-0.42-0.42-0.84-0.42-0.42-0.42-0.84-0.42-0.84-0.42-0.42-0.42-0.84-0.42-0.84-0.42-0.42-0.42-0.84-0.42-0.84-0.42-0.42-20.59 0 0 56.71 18.91 0 0.19-27.37 0.23 0.9 0.42 0.42 0.42 0.84 0.42 0.42 0.42 0.84 0.42 0.42 0.42 0.84 0.42 0.42 0.42 0.84 0.42 0.84 0.42 0.42 0.42 0.84 0.42 0.42 0.42 0.84 0.42 0.43 0.42 0.84 0.42 0.42zm92.83-3.37-26.46 0 0-37.8-19.32 0 0 56.71 45.78 0z" style="fill:none;stroke-width:3;stroke:#00a9ae"/>
  </g>
  <g id="CSS" transform="matrix(0.30820934,0,0,0.30820934,-441.19085,-259.74866)">
    <path d="m3070.88 2241.42 75.93 22.6 0.98 0 0-40.21-41.17-9.89-2.35-29.31-37.88-0.03zm76.91-17.61 42.25-11.49 1.88-42.45 0-4.9-44.13 0zm-150.047-227.524 0.9805 10.788 0.9805 10.788 0.9805 10.7868 0.9805 9.8075 0.9805 10.788 0.9805 10.788 0.9817 10.788 0.9806 10.788 0.9805 10.788 0.9805 9.8062 0.9805 10.788 0.9817 10.788 0.9805 10.788 0.9805 10.788 0.9805 10.7868 0.9805 10.788 0.9805 9.8075 0.9817 10.788 0.9805 10.788 0.9805 10.788 0.9805 10.7868 0.9805 10.788 0.9805 10.788 0.9806 9.8075 0.9817 10.788 0.9805 10.7868 0.9805 10.788 0.9805 10.788 0.9805 1.961 3.9232 0.9817 2.9427 0.9805 3.9221 0.9805 3.9232 0.9805 2.9415 0.9805 3.9232 0.9817 3.9233 0.9805 2.9415 0.9805 3.9232 0.9805 3.9233 0.9806 3.922 0.9805 2.9427 0.9805 3.922 0.9817 3.9233 0.9805 2.9427 0.9805 3.922 0.9805 3.9232 0.9805 3.9233 0.9817 2.9415 0.9805 3.9232 0.9805 3.9232 0.9805 2.9416 0.9805 3.9232 0.9805 3.922 0.9818 3.9232 0.9805 2.9428 0.9805 3.922 0.9805 3.9232 0.9805 2.9415 0.9805 3.9233 0.9805 3.9232 0.9817 2.9415 0.9805 3.9233 0.9805 3.9232 0 3.922-0.9805 2.9427-0.9805 3.9233-0.9817 3.922-0.9805 2.9427-0.9805 3.922-0.9805 3.9233-0.9805 2.9415-0.9805 3.9232-0.9805 3.9232-0.9818 3.9233-0.9805 2.9415-0.9805 3.9232-0.9805 3.922-0.9805 2.9428-0.9805 3.9232-0.9817 3.922-0.9805 3.9233-0.9805 2.9415-0.9805 3.9232-0.9805 3.9232-0.9817 2.9416-0.9805 3.9232-0.9805 3.9232-0.9806 2.9415-0.9805 3.9233-0.9805 3.9232-0.9805 3.922-0.9817 2.9427-0.9805 3.9221-0.9805 3.9232-0.9805 2.9427-0.9805 3.922-0.9817 0.9806-1.961 0.9805-10.788 0.9817-10.788 0.9805-10.7868 0.9805-10.788 0.9805-10.788 0.9805-9.8075 0.9817-10.788 0.9805-10.7868 0.9805-10.788 0.9805-10.788 0.9805-10.788 0.9805-9.8075 0.9818-10.788 0.9805-10.7868 0.9805-10.788 0.9805-10.788 0.9805-10.788 0.9805-10.788 0.9805-9.8062 0.9817-10.788 0.9805-10.788 0.9805-10.788 0.9805-10.788 0.9805-10.788 0.9817-9.8075 0.9805-10.7868 0.9805-10.788 0.9805-10.788 0-5.8842-300.096 0 0 5.8842zm149.6453 129.985-86.7489 0.8505 2.8104 36.8685 84.3725 0.6885zm0.0002 38.522 44.5315 0.2591-1.88 47.2679-42.25 11.49 0 40.21 76.41-21.58 9.89-114.74-84.46-0.29 87.35-36.98 3.98-37.26-92.7685 0zm-89.8185-74.383 91.2 1-0.177-38.24-92.003 0-3.77-0.02zm179.47-145.12-16.68-15.69 16.68-0.98 0-20.6-47.08 0 0 21.58 15.69 15.69-15.69 0.98 0 18.63 47.08 0zm-65.71 0-15.69-15.69 15.69-0.98 0-20.6-47.08 0 0 21.58 16.68 15.69-16.68 0.98 0 18.63 47.08 0zm-92.19-16.67 26.48 0 0-20.6-47.07 0 0 56.88 47.07 0 0-18.63-26.48 0z" style="fill:none;stroke-width:3;stroke:#00a9ae"/>
  </g>
  <g id="Corel" transform="matrix(0.15063489,0,0,0.15063489,730.6413,362.49859)">
    <path d="m351.094 552.6c20.475 0 40.949 0.065 61.424-0.059 3.829-0.023 5.714 0.061 4.528 5.061-5.743 24.237-11.049 48.578-16.5 72.884-0.528 2.358-1.616 3.545-4.372 3.536-30.461-0.095-60.924-0.079-91.385-0.01-2.653 0.006-3.781-0.892-4.334-3.539-2.311-11.057-4.541-22.146-7.388-33.069-3.453-13.253-5.199-26.847-8.554-40.094-1.099-4.338 0.293-5.019 4.16-4.995 20.806 0.126 41.613 0.06 62.42 0.06 0.001 0.074 0.001 0.149 0.001 0.225zM679.862-51.931c-2.434-14.092-5.153-28.032-9.845-41.579-5.792-16.72-13.525-32.492-22.295-47.812-8.374-14.628-19.073-27.564-30.712-39.51-10.335-10.606-21.078-20.909-33.045-29.9-9.594-7.208-19.224-14.162-30.054-19.346-1.152-0.552-2.444-1.668-4.281-0.329 0.802 0.717 1.376 1.253 1.974 1.763 12.156 10.367 25.413 19.505 36.342 31.236 21.891 23.498 39.015 50.146 51.131 79.916 11.401 28.014 17.982 57.041 17.88 87.437-0.071 21.153-1.225 42.198-4.019 63.206-3.496 26.286-9.288 52.009-16.945 77.347-12.363 40.911-30.015 79.63-48.465 118.068-26.147 54.476-57.311 105.964-91.203 155.882-24.225 35.677-49.908 70.277-76.724 104.042-0.963 1.213-2.116 2.232-1.873 3.887 0.089 0.018 0.175 0.047 0.265 0.061 0.06 0.01 0.118 0.028 0.178 0.044 8.546-4.78 14.585-12.532 21.034-19.425 7.185-7.678 13.872-15.978 20.721-24.049 12.357-14.562 24.718-29.106 36.308-44.299 11.566-15.162 22.978-30.434 33.956-46.026 15.926-22.616 30.927-45.835 45.137-69.559 10.438-17.424 21.598-34.511 30.647-52.64 8.62-17.271 17.805-34.306 25.261-52.205 4.048-9.719 8.897-19.315 12.586-29.076 4.404-11.657 9.139-23.325 12.502-35.447 3.058-11.018 6.883-21.819 9.96-32.863 2.666-9.568 4.621-19.25 6.872-28.892 4.538-19.432 7.195-39.143 8.288-58.969 0.934-16.955 1.349-33.995-1.581-50.963zM156.919-231.837c-10.802 8.989-21.764 17.601-31.781 27.386-32.908 32.142-55.888 70.077-67.682 114.649-8.432 31.863-10.141 64.25-8.103 97.025 2.349 37.771 10.684 74.315 21.876 110.278 9.505 30.546 21.53 60.143 34.948 89.171 26.613 57.569 58.765 112.002 94.007 164.628 25.192 37.619 51.297 74.604 79.816 109.829 3.903 4.821 7.825 9.753 10.013 15.951-5.212-4.855-10.685-9.464-15.58-14.62-9.128-9.613-18.163-19.337-26.771-29.412-6.325-7.401-13.087-14.475-19.178-21.974-12.654-15.581-23.608-32.532-36.025-48.318-10.048-12.774-18.54-26.576-28.097-39.622-9.878-13.485-18.395-27.834-27.686-41.66-7.858-11.693-14.637-24.268-21.901-36.438-5.003-8.382-8.82-17.335-14.124-25.634C93.803 228.685 89.489 216.374 83.769 204.907 76.161 189.656 69.777 173.852 62.496 158.475 58.081 149.148 56.324 138.981 51.826 129.818 45.663 117.262 42.441 103.675 38.31 90.481 33.74 75.879 30.673 60.725 28.016 45.624 23.09 17.635 22.576-10.663 23.92-39.002c0.978-20.577 4.759-40.679 12.132-59.878 7.661-19.948 16.949-39.107 30.111-56.243 13.891-18.082 28.641-35.273 46.451-49.641 7.54-6.082 14.764-12.606 23.088-17.635 6.639-4.009 13.729-7.129 21.217-9.438zm138.926-43.405c-20.022 9.646-35.864 24.2-52.008 38.371-43.692 38.355-67.65 87.696-80.098 143.479-4.757 21.313-7.176 42.88-8.291 64.702-1.843 36.064 0.796 71.802 6.017 107.43 9.37 63.948 27.095 125.686 49.157 186.294 20.006 54.96 43.21 108.526 69.75 160.635 13.054 25.628 26.524 51.045 39.788 76.566 0.125 0.24 0.016 0.603 0.016 1.008-2.559 0.95-3.466-1.385-4.843-2.548-14.928-12.612-25.599-28.928-37.816-43.874-25.216-30.85-47.928-63.496-67.914-97.974C190.309 325.565 172.989 291.228 156.259 256.601 136.476 215.653 118.783 173.846 105.123 130.406 96.028 101.48 88.9 72.067 85.044 42.008 81.183 11.906 80.46-18.287 84.42-48.562c6.312-48.258 23.719-91.946 52.832-130.866 25.355-33.897 57.695-59.19 96.271-76.59 17.461-7.876 35.014-15.426 54.061-18.678 1.474-0.251 2.966-0.425 4.456-0.527 1.263-0.088 2.536-0.019 3.805-0.019zM621.81-38.799c-3.668-41.333-16.829-79.613-37.693-115.266-35.355-60.413-88.598-97.62-154.598-117.9-7.004-2.152-14.294-3.735-21.892-3.182 0.133 0.508 0.123 0.728 0.216 0.786 0.561 0.357 1.135 0.697 1.723 1.008 46.308 24.521 81.01 60.564 105.441 106.662 23.811 44.928 33.067 93.461 34.569 143.747 1.066 35.678-2.098 71.074-7.672 106.329-4.705 29.762-11.049 59.146-18.783 88.228-12.974 48.781-29.646 96.325-48.72 143.04-22.672 55.53-48.752 109.445-76.753 162.463-4.317 8.175-9.992 15.654-12.841 24.595 1.711 0.176 2.742-1.19 3.643-2.127 6.836-7.104 14.538-13.271 20.901-20.939 17.758-21.396 34.888-43.229 50.552-66.219 37.413-54.909 69.229-112.938 96.664-173.394 23.492-51.767 43.449-104.781 55.822-160.435 8.606-38.704 12.94-77.728 9.421-117.396zM243.613-2.446c-0.317-30.337 1.241-60.585 5.25-90.65 5.436-40.76 15.036-80.421 33.246-117.58 8.943-18.251 19.868-35.104 36.61-47.328 21.558-15.74 46.468-14.362 66.96 2.903 16.464 13.872 27.557 31.543 36.681 50.545 16.068 33.467 24.386 69.154 29.547 105.751 5.762 40.862 6.784 81.932 5.531 123.054-1.033 33.904-3.792 67.745-7.948 101.414-9.436 76.436-23.298 152.086-41.859 226.841-11.899 47.925-23.398 95.967-38.408 143.059-1.478 4.637-3.365 9.142-4.903 13.76-1.4 4.203-4.57 5.338-8.255 4.256-5.244-1.539-10.567-0.83-15.813-1.029-2.737-0.104-3.004-0.845-3.802-2.979-2.911-7.784-5.925-15.498-7.996-23.586C314.07 429.8 297.715 374.12 285.215 317.456c-8.918-40.424-17.123-80.984-23.74-121.871-5.711-35.287-10.494-70.676-13.7-106.27-2.75-30.518-4.436-61.099-4.162-91.761z" style="fill:none;stroke-width:6;stroke:#00a9ae"/>
  </g>
  <g id="Adobe" transform="matrix(0.30820934,0,0,0.30820934,-447.19085,-265.74866)">
    <path d="m4074.42 1749.09-30.5518 0c-0.1077-36.4743-0.2155-72.9487-0.3232-109.423l31.1958 0c-0.1069 36.4743-0.2139 72.9487-0.3208 109.423zm-60.7816-72.7341c8.1471 23.7085 16.2941 47.4169 24.4412 71.1254l-33.1205 0c-3.8887-14.5818-7.833-29.149-11.5809-43.768-15.3294-0.1089-30.6587-0.2179-45.9881-0.3268-3.9124 14.5935-6.6387 30.2859-12.2199 44.0961l-32.4814 0c16.926-48.9227 33.8521-97.8453 50.7781-146.768 11.3743 0 22.7485 0.01 34.1228 0.012 8.6827 25.2088 17.367 50.4254 26.0487 75.6293zm42.7701-82.2678c23.5219 0.2041 22.5605 30.8471 1.1353 31.3512-19.2632-1.3909-20.5217-28.6777-1.1353-31.3512zm-213.857 226.7697 297.473 0 0-289.648-297.473 0zm231.8685-71.7678 0.32-109.42-31.19 0 0.32 109.42 0-31.86 0-77.24 30.55 0 0 35.72zm-88.86-73.76-15.06-55.69-3.28 11.72-14.4 53.27 0.36 0.09 34.73 0zm-156.8797-161.8644 0.038 321.5573 325.453 0 0-320.8609z" style="fill:none;stroke-width:3;stroke:#00a9ae"/>
  </g>
  <g id="Inkscape" transform="translate(378.04012,-172.33162)">
    <path d="m264.46814 451.63723c-6.02931-0.84673-11.88578-2.01251-17.60663-3.85856-1.53876-0.49612-2.63226-1.30423-3.45544-3.07846 4.55859 1.07654 8.86336 2.14602 13.1952 3.09259 1.88983 0.41348 3.83359 0.78834 5.75428 0.79611 2.13519 0.009 2.62143 0.91383 2.11259 3.04832zm16.95368-57.93464c-0.47282 3.46581-0.9023 6.61609-1.36899 10.04139-2.07821-0.95057-4.0135-1.74291-5.85483-2.71349-1.09938-0.57948-1.91856-0.47635-2.91081 0.21568-2.83546 1.97626-5.75616 3.8303-8.59752 5.79832-1.13188 0.78456-1.53358 0.66942-1.91221-0.74195-1.15636-4.30877-2.4865-8.57091-3.89011-13.32942-1.71606 4.0208-3.31486 7.56054-4.72506 11.17374-0.56323 1.44316-1.37723 2.03394-2.8868 2.15897-3.97887 0.3306-7.94881 0.7768-11.91686 1.2256-1.15071 0.1295-1.69275 0.0369-1.76174-1.42551-0.19167-4.06035 0.89523-7.42678 3.40576-10.7904 5.9476-7.96858 14.23736-12.9682 22.10964-18.53412 1.76858-1.25055 3.66525-1.19592 5.43947 0.10691 8.72208 6.40463 17.44675 12.80621 26.14151 19.24851 1.13729 0.8425 1.99721 1.97108 2.00333 3.8807-4.44039-2.11306-8.707-4.1423-13.27478-6.31493zm22.12189 82.79734c-3.07069-0.001-4.93581-1.84133-4.78228-4.52257 0.0921-1.60869 0.69674-3.03537 2.58869-3.1166 2.41682-0.10384 6.05192 2.94754 5.83105 4.98196-0.247 2.27506-2.19005 2.45071-3.63746 2.65721zm-71.36176-0.90983c-1.49285-0.18719-3.01136-0.45892-3.80794-1.95647-0.79092-1.48673 0.0153-2.6949 0.89665-3.86257 2.87502-3.8084 8.3969-4.19786 11.95359-0.86863 0.50366 0.47187 0.60538 0.94092 0.17542 1.33509-2.66828 2.44695-5.33233 4.92945-9.21772 5.35258zm82.45214-9.32558c-3.35136-0.28279-6.62738-0.90748-9.87585-1.83591-2.04171-0.58372-1.78741-1.63224-0.96988-2.89739 2.10105-3.25271 13.31717-4.15242 16.06315-1.33038 1.53571 1.57832 1.15755 4.03327-0.84932 5.1628-1.34332 0.75607-2.8324 0.96517-4.3681 0.90088zm11.37953-34.02863c0.61786 3.70881-1.53193 6.05898-4.61416 7.7256-6.91041 3.73753-14.36993 5.93347-21.99404 7.66036-2.49474 0.56488-5.08038 0.85945-7.39853 2.06173-3.42083 1.77376-3.5833 3.58259-0.51213 5.86213 2.48886 1.84745 5.31726 3.19714 7.65118 5.285 1.31554 1.17638 1.42103 1.99368 0.0278 3.34524-4.10791 3.98595-9.06114 6.43384-14.29128 8.48003-2.13755 0.83613-4.34433 1.56584-6.13809 3.08858-1.89267 1.60587-1.82203 2.58046 0.24511 3.82136 4.58968 2.7547 4.59204 3.52914-0.18154 6.13997-4.75144 2.59835-9.76589 4.15477-15.28306 3.49241-1.52581-0.18296-2.90069-0.72123-4.2207-1.47024-1.16932-0.66307-1.71677-1.46671-1.61529-2.97769 0.2058-3.06975-0.8771-4.45122-3.86162-5.07685-2.51146-0.52602-5.08603-0.745-7.62387-1.1533-1.79165-0.28892-3.6862-0.79045-4.28828-2.66287-0.5451-1.69605 0.84014-2.95437 1.91974-4.13217 5.22308-5.69848 4.99562-6.95091-2.32026-9.74281-5.45336-2.08151-11.02845-3.84325-16.54704-5.75381-1.92681-0.66684-3.82677-1.39584-5.49292-2.6113-1.85546-1.35487-1.93269-2.43024 0.0481-3.60827 2.27412-1.35321 4.77193-2.32686 7.07266-3.64051 1.46317-0.83543 3.84066-1.29459 3.64098-3.36126-0.17707-1.83215-2.42881-2.13684-3.97323-2.64285-5.96926-1.95695-11.99362-3.7453-17.96853-5.68529-6.31022-2.04855-7.28151-4.83974-3.66995-10.53798 0.79846-1.25927 1.85428-2.3829 2.91434-3.44603 15.30025-15.34169 30.61416-30.66925 45.94055-45.98505 6.93419-6.92948 14.73867-6.91559 21.69311 0.0369 15.26093 15.25599 30.48701 30.54611 45.77101 45.77831 3.2294 3.21927 5.29183 6.85273 5.07002 11.71059z" style="fill:none;stroke-width:1;stroke:#00a9ae"/>
  </g>
</svg>
