<svg xmlns:svg="http://www.w3.org/2000/svg" xmlns="http://www.w3.org/2000/svg" width="854" height="200" viewBox="0 0 854.00005 199.99999" id="WhoWeAre" version="1.1">
    <g id="layer1" transform="translate(164.85,-188)">
        <path id="Base" style="fill:none;stroke:#00BEBE;stroke-width:4" d="m 452.93807,289.14323 26.8824,0 m 5.38278,-28.99925 -32.84912,-0.14391 0.28318,29.79994 -0.37615,29.90374 32.88377,0.0171 m -189.63328,-30.42278 26.8824,0 m 7.8092,-29.15409 -32.84912,-0.14391 0.28318,29.79994 -0.37615,29.90373 32.88377,0.0171 m 35.24751,-17.45696 21.24292,0 m -27.70202,20.44411 16.37364,-61.49932 0.37959,0.0157 16.8339,61.68144 m -92.00882,-33.60774 26.8824,0 m -101.67356,-31.67123 15.1019,63.8528 3.96287,-18.45459 9.33265,-42.72175 0.44433,0.0249 9.56518,42.73064 3.56594,18.5162 15.41384,-63.88802 m -106.14361,2.41768 c 7.8317,0 14.13664,4.5741 14.13664,10.2558 l 0,38.65675 c 0,5.6817 -6.30494,10.25581 -14.13664,10.25581 -7.8317,0 -14.13664,-4.57411 -14.13664,-10.25581 l 0,-38.65675 c 0,-5.6817 6.30494,-10.2558 14.13664,-10.2558 z m -135.166576,-3.47786 15.1019,63.85279 3.96287,-18.45459 9.33264,-42.72174 0.44433,0.0249 9.56518,42.73063 3.56594,18.5162 15.41385,-63.88801 m 14.661976,33.47331 29.14356,-0.20526 0,0 0.19691,32.22036 c -0.20044,-21.58939 -0.1969,-43.17901 -0.1969,-64.76903 m -29.34049,-0.28732 0.39384,65.26157 m 303.38166,-29.48015 19.11975,29.19992 m -32.29112,-1.38389 -10e-6,-59.55145 16.85691,0.10181 c 14.58764,-0.13838 13.30981,14.75025 13.30981,14.75025 0,0 1.82551,15.24382 -13.32866,15.79738 L 404.2529,291.65501 M 123.02955,402.57652 Z" />
    </g>
</svg>
